<svg width="434" height="304" viewBox="0 0 434 304" fill="none" xmlns="http://www.w3.org/2000/svg">
<g filter="url(#filter0_d)">
<path d="M407.7 155.686C401.703 159.566 234.84 272.807 234.84 272.807C223.624 280.181 213.477 280.795 201.327 272.807L97.2787 205.593L313.509 72.7839C313.509 72.7839 397.822 128.631 403.819 134.167C409.816 139.702 413.697 151.805 407.7 155.686Z" fill="#C64600"/>
<path d="M401.308 132.024C410.17 137.851 410.17 147.233 401.308 153.06L233.34 263.499C224.477 269.326 210.208 269.326 201.346 263.499L105.364 200.391L305.326 68.9169L401.308 132.024Z" fill="#FF7800"/>
<path opacity="0.1" d="M197.267 192.45L205.265 187.191L245.257 213.486L237.259 218.745L197.267 192.45Z" fill="black"/>
<path opacity="0.1" d="M181.27 202.968L189.268 197.709L229.26 224.004L221.262 229.263L181.27 202.968Z" fill="black"/>
<path d="M201.266 189.82L209.264 184.562L249.257 210.856L241.258 216.115L201.266 189.82Z" fill="white"/>
<path d="M185.269 200.339L193.267 195.08L233.26 221.374L225.261 226.633L185.269 200.339Z" fill="white"/>
<path d="M217.343 21.5863C208.481 15.7594 194.211 15.7594 185.349 21.5863L21.7647 130.286C12.9024 136.113 12.9024 151.27 21.7648 157.097L105.364 210.909L305.326 79.435L217.343 21.5863Z" fill="#5E5C64"/>
<path d="M225.341 16.3271C216.479 10.5002 202.21 10.5002 193.347 16.3271L25.3793 126.765C16.517 132.592 16.5169 141.974 25.3793 147.801L113.363 205.65L313.325 74.1758L225.341 16.3271Z" fill="#77767B"/>
<path opacity="0.2" d="M125.282 124.085L109.285 134.603L93.2883 124.085L85.2898 129.344L101.287 139.862L85.2898 150.38L93.2883 155.639L109.285 145.121L125.282 155.639L133.281 150.38L117.284 139.862L133.281 129.344L125.282 124.085Z" fill="black"/>
<path d="M129.281 121.455L113.284 131.973L97.2875 121.455L89.289 126.714L105.286 137.232L89.289 147.75L97.2875 153.009L113.284 142.491L129.281 153.009L137.28 147.75L121.283 137.232L137.28 126.714L129.281 121.455Z" fill="white"/>
<path opacity="0.1" d="M181.27 66.2347L189.268 60.9757L229.26 87.2706L221.262 92.5295L181.27 66.2347Z" fill="black"/>
<path d="M185.269 63.6053L193.267 58.3463L233.26 84.6412L225.261 89.9001L185.269 63.6053Z" fill="white"/>
<path d="M107.284 72.8085L211.191 141.127" stroke="#5E5C64" stroke-width="2"/>
</g>
<defs>
<filter id="filter0_d" x="2.11801" y="0.956909" width="431.582" height="302.613" filterUnits="userSpaceOnUse" color-interpolation-filters="sRGB">
<feFlood flood-opacity="0" result="BackgroundImageFix"/>
<feColorMatrix in="SourceAlpha" type="matrix" values="0 0 0 0 0 0 0 0 0 0 0 0 0 0 0 0 0 0 127 0"/>
<feOffset dx="5" dy="7"/>
<feGaussianBlur stdDeviation="9"/>
<feColorMatrix type="matrix" values="0 0 0 0 1 0 0 0 0 0.470588 0 0 0 0 0 0 0 0 0.5 0"/>
<feBlend mode="normal" in2="BackgroundImageFix" result="effect1_dropShadow"/>
<feBlend mode="normal" in="SourceGraphic" in2="effect1_dropShadow" result="shape"/>
</filter>
</defs>
</svg>
