<svg width="30" height="28" viewBox="0 0 30 28" fill="none" xmlns="http://www.w3.org/2000/svg">
<path d="M27.674 14.5512V0.882955C27.674 0.395328 27.2789 0 26.7915 0H3.14756C2.66018 0 2.26506 0.395328 2.26506 0.882955V15.6408C1.83935 15.7029 1.42316 15.8682 1.05498 16.1417C-0.105674 16.9652 -0.380189 18.8079 0.592026 19.9444L4.56696 24.7658C7.02748 27.647 9.64125 28 13.5269 28C16.8614 28 18.3522 28.0147 21.2582 27.3522L24.088 26.675C24.5468 27.3161 25.2752 27.7314 26.0941 27.7314H27.4881C28.8732 27.7314 30 26.5437 30 25.0838V17.1908C30.0001 15.7969 28.9725 14.6519 27.674 14.5512ZM23.7073 16.3675L22.5315 15.77C20.5982 14.7936 18.3629 14.7575 16.3991 15.671C15.8633 15.8818 14.6947 16.5893 14.0886 16.5656H10.0084C8.65497 16.5656 7.55385 17.6672 7.55385 19.0214V19.6653C7.54626 19.6573 7.53832 19.6497 7.53085 19.6416L4.61715 16.4772C4.44082 16.2858 4.24273 16.1255 4.03011 15.997V7.23693H11.252V10.4736C11.252 10.9612 11.6472 11.3566 12.1345 11.3566H17.7031C18.1905 11.3566 18.5856 10.9612 18.5856 10.4736V7.23693H25.909V14.5512C24.8779 14.6309 24.0182 15.3689 23.7073 16.3675ZM13.017 7.23693H16.8206V9.59066H13.017V7.23693ZM25.909 5.47102H18.5856V1.76591H25.909V5.47102H25.909ZM16.8206 1.76591V5.47108H13.017V1.76591H16.8206ZM11.252 1.76591V5.47108H4.03005V1.76591H11.252ZM20.8486 25.6344C18.1641 26.2496 16.5473 26.2247 13.5586 26.2247C9.91094 26.2247 8.14848 26.1657 5.92859 23.642L1.95366 18.8207C1.26225 17.9199 2.51457 16.8565 3.31905 17.6736L6.23276 20.838C7.00282 21.651 7.97186 22.0984 9.16623 22.1247H17.2445C17.7318 22.1247 18.127 21.7294 18.127 21.2418C18.127 20.7542 17.7318 20.3588 17.2445 20.3588H9.31879V19.0213C9.31879 18.6409 9.62807 18.3314 10.0083 18.3314H14.0885C15.0077 18.3972 16.3344 17.6293 17.1432 17.2722C18.614 16.588 20.2881 16.615 21.7342 17.3453L23.5824 18.2845V24.9802L20.8486 25.6344ZM28.2351 25.0837C28.2351 25.5699 27.9 25.9654 27.4882 25.9654H26.0942C25.6824 25.9654 25.3474 25.5699 25.3474 25.0837V17.1908C25.3474 16.7047 25.6824 16.3091 26.0942 16.3091H27.4882C27.9 16.3091 28.2351 16.7046 28.2351 17.1908V25.0837Z" fill="url(#paint0_linear)"/>
<defs>
<linearGradient id="paint0_linear" x1="1.82819" y1="1.01538e-06" x2="27.3065" y2="16.5298" gradientUnits="userSpaceOnUse">
<stop stop-color="#FF3F33"/>
<stop offset="1" stop-color="#FFC01A"/>
</linearGradient>
</defs>
</svg>
