<svg width="60" height="46" viewBox="0 0 60 46" fill="none" xmlns="http://www.w3.org/2000/svg">
<path d="M54.5 22.5L58.5 22C57.5 40 42.5 46 31.5 43V41L32.5 37.5L33 36L37 33L38.5 29.5L43.5 28L50 25.5L54.5 22.5Z" fill="#FFC837"/>
<path d="M4.55533 10.4856H13.8246C14.31 10.4856 14.7035 10.0922 14.7035 9.60666C14.7035 9.12115 14.31 8.72775 13.8246 8.72775H4.55533C4.06994 8.72775 3.67642 9.12115 3.67642 9.60666C3.67642 10.0922 4.06982 10.4856 4.55533 10.4856Z" fill="white"/>
<path d="M13.5068 14.7169H9.84515C9.35976 14.7169 8.96625 15.1103 8.96625 15.5958C8.96625 16.0813 9.35976 16.4747 9.84515 16.4747H13.5068C13.9922 16.4747 14.3857 16.0813 14.3857 15.5958C14.3857 15.1103 13.9922 14.7169 13.5068 14.7169Z" fill="white"/>
<path d="M0.878906 20.8118H9.84516C10.3305 20.8118 10.7241 20.4184 10.7241 19.9329C10.7241 19.4474 10.3305 19.054 9.84516 19.054H0.878906C0.393516 19.054 0 19.4474 0 19.9329C0 20.4184 0.393516 20.8118 0.878906 20.8118Z" fill="white"/>
<path d="M14.7035 36.3932C14.7035 35.9077 14.31 35.5143 13.8246 35.5143H4.55533C4.06994 35.5143 3.67642 35.9077 3.67642 36.3932C3.67642 36.8788 4.06994 37.2722 4.55533 37.2722H13.8246C14.31 37.2722 14.7035 36.8788 14.7035 36.3932Z" fill="white"/>
<path d="M13.5068 29.5254H9.84515C9.35976 29.5254 8.96625 29.9188 8.96625 30.4043C8.96625 30.8898 9.35976 31.2832 9.84515 31.2832H13.5068C13.9922 31.2832 14.3857 30.8898 14.3857 30.4043C14.3857 29.9188 13.9922 29.5254 13.5068 29.5254Z" fill="white"/>
<path d="M10.7241 26.0672C10.7241 25.5816 10.3305 25.1882 9.84516 25.1882H0.878906C0.393516 25.1882 0 25.5816 0 26.0672C0 26.5527 0.393516 26.9461 0.878906 26.9461H9.84516C10.3305 26.9461 10.7241 26.5527 10.7241 26.0672Z" fill="white"/>
<path d="M37.4448 12.4332C37.9303 12.4332 38.3237 12.0398 38.3237 11.5543V10.2128C38.3237 9.72725 37.9303 9.33385 37.4448 9.33385C36.9593 9.33385 36.5659 9.72725 36.5659 10.2128V11.5543C36.5659 12.0398 36.9593 12.4332 37.4448 12.4332Z" fill="white"/>
<path d="M47.1082 13.3365C46.7648 12.9934 46.2084 12.9934 45.8652 13.3365L44.9166 14.2851C44.5733 14.6285 44.5733 15.1849 44.9166 15.5281C45.26 15.8714 45.8163 15.8713 46.1596 15.5281L47.1082 14.5795C47.4513 14.2363 47.4513 13.6799 47.1082 13.3365Z" fill="white"/>
<path d="M48.8905 22.1211C48.405 22.1211 48.0116 22.5145 48.0116 23C48.0116 23.4855 48.405 23.8789 48.8905 23.8789H50.2319C50.7175 23.8789 51.1109 23.4855 51.1109 23C51.1109 22.5145 50.7175 22.1211 50.2319 22.1211H48.8905Z" fill="white"/>
<path d="M46.1596 30.4718C45.8162 30.1286 45.2598 30.1286 44.9166 30.4718C44.5733 30.8151 44.5733 31.3715 44.9166 31.7148L45.8652 32.6634C46.2087 33.0066 46.765 33.0065 47.1082 32.6634C47.4515 32.32 47.4515 31.7636 47.1082 31.4204L46.1596 30.4718Z" fill="white"/>
<path d="M36.5659 34.4457V35.7872C36.5659 36.2727 36.9593 36.6661 37.4448 36.6661C37.9303 36.6661 38.3237 36.2727 38.3237 35.7872V34.4457C38.3237 33.9602 37.9303 33.5668 37.4448 33.5668C36.9593 33.5668 36.5659 33.9603 36.5659 34.4457Z" fill="white"/>
<path d="M28.7299 30.4718L27.7813 31.4204C27.4381 31.7638 27.4381 32.3202 27.7813 32.6634C28.1247 33.0066 28.6811 33.0065 29.0242 32.6634L29.9728 31.7148C30.3161 31.3714 30.3161 30.815 29.9728 30.4718C29.6297 30.1286 29.0732 30.1286 28.7299 30.4718Z" fill="white"/>
<path d="M24.6575 22.1211C24.1721 22.1211 23.7786 22.5145 23.7786 23C23.7786 23.4855 24.1721 23.8789 24.6575 23.8789H25.9991C26.4845 23.8789 26.878 23.4855 26.878 23C26.878 22.5145 26.4845 22.1211 25.9991 22.1211H24.6575Z" fill="white"/>
<path d="M29.9729 14.2851L29.0243 13.3365C28.6811 12.9934 28.1245 12.9934 27.7814 13.3365C27.4382 13.6799 27.4382 14.2363 27.7814 14.5795L28.73 15.5281C29.0734 15.8714 29.6298 15.8713 29.9729 15.5281C30.3162 15.1849 30.3162 14.6285 29.9729 14.2851Z" fill="white"/>
<path d="M42.171 23C42.171 22.5145 41.7776 22.1211 41.2921 22.1211H38.3237V15.5956C38.3237 15.1101 37.9303 14.7167 37.4448 14.7167C36.9593 14.7167 36.5659 15.1101 36.5659 15.5956V23C36.5659 23.4855 36.9593 23.8789 37.4448 23.8789H41.2921C41.7775 23.8789 42.171 23.4855 42.171 23Z" fill="white"/>
<path d="M54.1103 22.8549C54.5949 22.8255 54.9638 22.4089 54.9344 21.9245C54.3753 12.7015 46.6929 5.47674 37.4447 5.47674C27.7824 5.47674 19.9214 13.3377 19.9214 23.0001C19.9214 32.6625 27.7824 40.5234 37.4447 40.5234C46.1012 40.5234 53.4877 34.181 54.7726 25.6222C54.8447 25.1422 54.514 24.6947 54.0339 24.6226C53.5551 24.5508 53.1063 24.8811 53.0343 25.3613C51.88 33.0505 45.2406 38.7657 37.4447 38.7657C28.7516 38.7657 21.6792 31.6933 21.6792 23.0003C21.6792 14.3072 28.7516 7.23467 37.4447 7.23467C45.7651 7.23467 52.6767 13.734 53.1797 22.0311C53.209 22.5153 53.6252 22.8831 54.1103 22.8549Z" fill="white"/>
<path d="M37.4447 0.444817C34.3532 0.444817 31.3242 1.08618 28.5363 2.2856H13.029C12.5436 2.2856 12.1501 2.679 12.1501 3.1645C12.1501 3.65001 12.5436 4.04341 13.029 4.04341H25.2298C23.5801 5.10513 22.0615 6.38575 20.7225 7.86419C20.3967 8.22384 20.4241 8.77966 20.7839 9.10556C21.1438 9.43146 21.6994 9.40392 22.0254 9.04415C25.9631 4.69626 31.5833 2.20263 37.4447 2.20263C48.9124 2.20263 58.2422 11.5323 58.2422 23C58.2422 34.4676 48.9125 43.7974 37.4447 43.7974C25.977 43.7974 16.6473 34.4677 16.6473 23C16.6473 18.9842 17.7945 15.0866 19.9645 11.7282C20.228 11.3205 20.111 10.7765 19.7033 10.5131C19.2956 10.2498 18.7516 10.3665 18.4881 10.7743C16.1338 14.4174 14.8895 18.645 14.8895 23C14.8895 30.9413 19.0152 37.9365 25.2354 41.9566H13.0291C12.5437 41.9566 12.1502 42.35 12.1502 42.8355C12.1502 43.321 12.5437 43.7144 13.0291 43.7144H28.5243C31.2618 44.8979 34.2778 45.5552 37.4448 45.5552C49.8817 45.5552 60 35.437 60 23C60 10.563 49.8817 0.444817 37.4447 0.444817Z" fill="white"/>
</svg>
