<svg width="60" height="48" viewBox="0 0 60 48" fill="none" xmlns="http://www.w3.org/2000/svg">
<path d="M56.8156 14.4271H46.6408C44.885 14.4271 43.4565 15.6182 43.4565 17.0822V26.8414H39.6507C39.8622 26.2007 39.9406 25.4449 39.8892 24.5654C39.8066 20.8487 38.9973 17.7162 37.4836 15.2551C36.3082 13.3442 34.9365 12.1986 33.7595 11.5138C35.141 10.3301 35.9397 8.64619 35.9397 6.7041C35.9397 3.20986 32.5949 0.367188 28.4836 0.367188C24.3723 0.367188 21.0274 3.20986 21.0274 6.7041C21.0274 7.10869 21.4209 7.43652 21.9063 7.43652H22.5035C22.4485 7.71289 22.4192 7.99453 22.4192 8.28056C22.4192 10.7431 24.5307 12.8012 27.3224 13.2624C27.0297 14.1679 26.8843 15.2355 26.8849 16.4484L24.6928 18.0196L19.359 18.3791L13.2063 16.6842C12.6424 16.5279 12.0033 16.3514 11.4487 16.6846C10.9023 17.0132 10.9023 17.5885 10.9023 17.7774V21.5894C10.9023 21.994 11.2958 22.3219 11.7812 22.3219H12.8276L11.2227 26.9434C11.0878 27.3318 11.3564 27.7381 11.8227 27.8505C12.2892 27.9635 12.7764 27.7391 12.9114 27.3506L14.6577 22.3219H17.1564C14.0485 30.2195 15.8218 35.4912 18.5475 40.8263H16.9676L10.3871 34.6948L11.7786 30.689C11.9136 30.3004 11.645 29.8942 11.1787 29.7818C10.7124 29.6694 10.2251 29.8933 10.0901 30.2817L8.75916 34.1135C4.64284 34.0562 0.960806 36.4213 0.022486 39.8239C-0.0861467 40.2181 0.209048 40.611 0.6819 40.7017L1.92959 40.9409C1.61085 43.6999 3.79112 46.3029 7.1162 46.9407C7.62116 47.0377 8.13045 47.0855 8.63623 47.0855C9.88358 47.0855 11.109 46.7941 12.1929 46.228C13.4649 45.5638 14.4128 44.5872 14.9257 43.4331L15.9102 43.6219C16.2035 43.6784 16.4817 43.707 16.7597 43.5823C17.0183 43.4663 17.1902 43.2568 17.2547 43.0204C17.3165 42.7807 17.3637 42.537 17.3964 42.2911H35.7781C36.366 45.3367 39.4755 47.6325 43.1893 47.6325C46.9031 47.6325 50.0128 45.3367 50.6006 42.2911H51.2714C51.2714 42.2911 51.4045 42.2924 51.4349 42.2924C51.6862 42.2924 52.0493 42.2691 52.3474 42.0164C52.4966 41.8899 52.6717 41.6637 52.6582 41.3042C52.6335 40.6164 52.5096 39.9519 52.2982 39.3202C52.9983 35.7784 52.3247 33.6213 51.3261 31.9331C51.9574 31.5883 52.376 30.9941 52.376 30.3191V28.3061H56.8154C58.5712 28.3061 59.9997 27.1151 59.9997 25.6511V17.0821C60 15.6182 58.5716 14.4271 56.8156 14.4271ZM11.2595 44.987C10.1344 45.5746 8.80311 45.7614 7.51077 45.5135C5.13209 45.0572 3.54502 43.2395 3.66069 41.2741L13.1942 43.1026C12.7998 43.8766 12.1324 44.5311 11.2595 44.987ZM15.6573 42.0704L1.98561 39.4487C3.04065 37.0411 5.87987 35.4474 8.98334 35.5845L15.6807 41.8248C15.6749 41.9071 15.6671 41.989 15.6573 42.0704ZM28.9329 29.3072C28.6778 29.868 28.6778 30.5593 28.6778 31.5162V34.2801H25.4594V30.4883C25.4594 26.2014 28.267 25.4374 29.527 25.3113H38.1437C38.109 26.2843 37.8456 26.9759 37.3454 27.4148C36.7625 27.9264 35.7651 28.1756 34.2961 28.1768L31.1413 28.1795C30.0163 28.1796 29.2733 28.5589 28.9329 29.3072ZM28.6778 35.7448V37.4936C28.6698 37.4936 28.6616 37.4936 28.6531 37.4936H22.4102C22.4804 36.9513 22.6831 36.5315 23.0161 36.2411C23.5113 35.8093 24.2088 35.7448 24.5805 35.7448H28.6778ZM38.1049 23.8466H30.1119C29.7909 23.0049 29.5047 22.0832 29.2694 21.1359L31.6995 19.8215C33.0261 19.1036 33.7162 18.0893 33.5929 17.0384C33.4837 16.1068 32.7238 15.2747 31.6569 14.9186C30.6826 14.5934 29.6339 14.6955 28.7071 15.1894C28.7835 14.4888 28.9257 13.8634 29.1315 13.3325C29.5062 13.3003 29.8782 13.2393 30.2436 13.1497C30.9874 13.0058 31.6747 12.7764 32.2952 12.4722C33.988 13.3149 37.711 16.0485 38.1049 23.8466ZM22.8496 5.97178C23.264 3.63154 25.6326 1.83213 28.4836 1.83213C31.6256 1.83213 34.1819 4.01777 34.1819 6.7042C34.1819 8.88916 32.9246 10.6502 30.8973 11.4252V7.57139C30.8973 6.9041 30.5908 6.08555 29.1314 5.9748C29.1049 5.97275 29.0783 5.97178 29.0517 5.97178H22.8496ZM24.1772 8.28066C24.1772 7.9916 24.2167 7.70928 24.2944 7.43662H29.0086C29.0628 7.4415 29.1024 7.44678 29.1308 7.45156C29.1354 7.47871 29.1394 7.51777 29.1394 7.57139V11.8562C28.9299 11.8818 28.7192 11.8948 28.5087 11.8949C28.5067 11.8949 28.5047 11.8949 28.5028 11.8949C26.1173 11.8931 24.1772 10.2725 24.1772 8.28066ZM23.0378 19.601L25.1195 19.4606C25.305 19.4482 25.4809 19.387 25.6221 19.2859L29.3791 16.5931C29.7424 16.3322 30.1308 16.1979 30.5083 16.1979C30.6764 16.1979 30.8424 16.2245 31.0033 16.2782C31.4678 16.4332 31.7975 16.7875 31.8437 17.1807C31.9017 17.6755 31.5105 18.177 30.7426 18.5927L26.5561 20.8571H23.038L23.0378 19.601ZM19.3234 19.8514L21.2799 19.7195V20.8573H19.0064C18.7117 20.8573 18.6398 20.6532 18.6314 20.482C18.6266 20.385 18.6376 19.8982 19.3234 19.8514ZM17.2432 19.3457C16.9785 19.7074 16.8548 20.1306 16.8751 20.542C16.8804 20.6485 16.8967 20.7512 16.9194 20.8512C16.9194 20.8532 16.918 20.8553 16.9185 20.8572H12.6603V18.0767L17.2466 19.34C17.2452 19.342 17.2445 19.3438 17.2432 19.3457ZM19.0113 22.3221H26.8161C26.9859 22.3221 27.1522 22.2811 27.2946 22.204L27.6924 21.9888C27.8838 22.6936 28.1018 23.3796 28.3392 24.0274C26.5467 24.4684 23.7015 25.8933 23.7015 30.4882V34.3535C23.0849 34.4572 22.3554 34.6969 21.7452 35.229C21.1019 35.7899 20.7346 36.55 20.6464 37.4935H18.8734C17.0867 33.2027 16.4073 28.6367 19.0113 22.3221ZM20.46 40.8238C20.1351 40.2013 19.822 39.581 19.5272 38.9585H28.653C29.8358 38.9585 30.4354 38.5098 30.4354 37.6249V35.0124V32.2485H37.3728C37.8583 32.2485 38.2517 31.9207 38.2517 31.5161C38.2517 31.1115 37.8583 30.7837 37.3728 30.7837H30.4418C30.453 30.3677 30.485 30.0274 30.5765 29.8265C30.621 29.7287 30.6594 29.6443 31.1421 29.6443L34.2977 29.6416C36.2741 29.64 37.6879 29.2416 38.6202 28.4234C38.6633 28.3855 38.7041 28.3458 38.745 28.3062H44.3355H50.6185V30.3192C50.6185 30.571 50.3639 30.7837 50.0625 30.7837H41.3127C40.8272 30.7837 40.4338 31.1115 40.4338 31.5161C40.4338 31.9207 40.8272 32.2485 41.3127 32.2485H49.546C50.2407 33.323 50.8656 34.6601 50.8284 36.7725C49.0896 34.7597 46.2746 33.4654 43.0799 33.4654C40.5142 33.4654 38.1067 34.3041 36.3007 35.827C34.6981 37.1783 33.7357 38.9321 33.5376 40.8263L20.46 40.8238ZM43.1894 46.1679C40.4418 46.1679 38.1246 44.5182 37.564 42.2913H48.8149C48.2542 44.518 45.9369 46.1679 43.1894 46.1679ZM49.8133 40.8265H36.5658H35.3031C35.7345 37.5146 39.0575 34.9303 43.0799 34.9303C46.6113 34.9303 49.577 36.8708 50.5591 39.5873C50.5623 39.5959 50.5654 39.6045 50.569 39.613C50.7078 40.0027 50.8059 40.4084 50.859 40.8265H49.8133ZM58.2422 25.6512C58.2422 26.3075 57.6022 26.8414 56.8156 26.8414H45.2143V23.0591H58.2422V25.6512ZM58.2422 21.5942H45.2143V20.0365H58.2422V21.5942ZM58.2422 18.5717H45.2143V17.0822C45.2143 16.4259 45.8543 15.892 46.6408 15.892H56.8156C57.6022 15.892 58.2422 16.426 58.2422 17.0822V18.5717Z" fill="white"/>
<path d="M38.5 28H50.5L51 29.5L50.5 31H40.8809C40.5 31 40.5 32 41 32H49.5C50.8737 33.5966 51.5258 35.4704 51 37C48.1783 33.9809 45.5346 33.0992 40 34C35.4902 35.4157 34.5435 37.2669 33.5 41H30.5V35.5L32.5 34L37 32.5L38 31.5L37.5 30.5V29.5L38.5 28Z" fill="#FFC837"/>
</svg>
