<svg width="58" height="50" viewBox="0 0 58 50" fill="none" xmlns="http://www.w3.org/2000/svg">
<path d="M56.6245 11.0319L29.3822 0.0722992C29.1406 -0.0247711 28.8594 -0.0247711 28.618 0.0722992L1.37551 11.0319C1.07176 11.154 0.878752 11.4104 0.878752 11.6914V38.3075C0.878752 38.5886 1.07176 38.845 1.37551 38.9671L28.6179 49.9267C28.7386 49.9752 28.8693 49.9995 29 49.9995C29.1307 49.9995 29.2613 49.9752 29.3822 49.9267L56.6245 38.9671C56.9283 38.845 57.1213 38.5886 57.1213 38.3075V11.6915C57.1213 11.4103 56.9281 11.1541 56.6245 11.0319ZM29 1.54525L54.2208 11.6914L46.9098 14.6326C46.8635 14.6033 46.8146 14.5761 46.761 14.5545L21.7115 4.47738L29 1.54525ZM19.7266 5.3055L44.9107 15.4369L39.7527 17.512L14.579 7.3847L19.7266 5.3055ZM45.4999 16.8264V24.4969L40.682 26.4352V18.7647L45.4999 16.8264ZM55.3635 37.848L29.8789 48.1001V23.1107L35.9578 20.6652C36.3949 20.4893 36.5782 20.0515 36.3671 19.6871C36.1561 19.323 35.6307 19.1701 35.1935 19.346L29 21.8377L26.563 20.8573C26.1257 20.6812 25.6004 20.8341 25.3893 21.1984C25.1783 21.5626 25.3616 22.0005 25.7987 22.1764L28.1211 23.1107V48.1001L2.63656 37.8478V12.8583L22.0428 20.6655C22.166 20.7151 22.2962 20.7385 22.4243 20.7385C22.751 20.7385 23.0648 20.586 23.2163 20.3243C23.4274 19.9601 23.2441 19.5222 22.807 19.3463L3.77926 11.6914L12.5103 8.17894L38.912 18.8003C38.9158 18.8048 38.9202 18.8088 38.9242 18.8132V27.6022C38.9242 27.8542 39.0797 28.0885 39.3358 28.2226C39.4781 28.297 39.6404 28.3346 39.8032 28.3346C39.9335 28.3346 40.0641 28.3105 40.1852 28.2617L46.761 25.6163C47.0647 25.4942 47.2577 25.2379 47.2577 24.9568V16.1194L55.3635 12.8584V37.848Z" fill="white"/>
<path d="M33 47L55.5 38V20L52 21.5L47 29C35.2319 32.9452 33.1998 37.3921 33 47Z" fill="#FFC837"/>
<path d="M9.88976 35.0077L5.89191 33.3994C5.45457 33.2233 4.92933 33.3763 4.71828 33.7405C4.50722 34.1048 4.6905 34.5427 5.12761 34.7186L9.12547 36.3269C9.24863 36.3765 9.37883 36.3999 9.50691 36.3999C9.83363 36.3999 10.1475 36.2474 10.299 35.9857C10.5102 35.6214 10.3269 35.1837 9.88976 35.0077Z" fill="white"/>
<path d="M13.5691 33.0119L5.89743 29.9256C5.4602 29.7497 4.93485 29.9024 4.72379 30.2668C4.51285 30.6311 4.69614 31.0689 5.13325 31.2448L12.8049 34.3312C12.9281 34.3807 13.0583 34.4042 13.1864 34.4042C13.5131 34.4042 13.8269 34.2517 13.9784 33.99C14.1895 33.6256 14.0062 33.1877 13.5691 33.0119Z" fill="white"/>
</svg>
