<svg width="25" height="26" viewBox="0 0 25 26" fill="none" xmlns="http://www.w3.org/2000/svg">
<path d="M13.424 6.87217C13.3297 6.87217 13.2355 6.83622 13.1635 6.76427C13.0197 6.62042 13.0197 6.38719 13.1636 6.24339L13.5803 5.82673C13.7242 5.68289 13.9574 5.68293 14.1012 5.82678C14.245 5.97063 14.245 6.20386 14.1011 6.34766L13.6844 6.76432C13.6126 6.83617 13.5183 6.87217 13.424 6.87217Z" fill="url(#paint0_linear)"/>
<path d="M17.7619 11.2094C17.6677 11.2094 17.5734 11.1734 17.5014 11.1015C17.3576 10.9576 17.3576 10.7244 17.5014 10.5806L17.9182 10.1639C18.062 10.0201 18.2952 10.0201 18.4391 10.1639C18.5829 10.3078 18.5829 10.541 18.4391 10.6848L18.0224 11.1015C17.9505 11.1734 17.8562 11.2094 17.7619 11.2094Z" fill="url(#paint1_linear)"/>
<path d="M16.1037 9.60267C15.7225 9.60267 15.3558 9.45194 15.0848 9.1809C14.7904 8.88662 14.6379 8.47914 14.6665 8.06302C14.6804 7.86005 14.8558 7.70652 15.0592 7.72076C15.2621 7.73466 15.4153 7.91048 15.4014 8.11346C15.3875 8.31703 15.4619 8.51622 15.6057 8.65997C15.7495 8.80377 15.9488 8.87788 16.1522 8.86428C16.3548 8.85097 16.531 9.00361 16.5449 9.20653C16.5588 9.40951 16.4056 9.58533 16.2027 9.59923C16.1696 9.60154 16.1366 9.60267 16.1037 9.60267Z" fill="url(#paint2_linear)"/>
<path d="M19.4728 18.3359C16.285 20.4644 11.914 18.2191 11.8921 14.3029C11.891 14.1002 11.7263 13.9366 11.5238 13.9366C11.5231 13.9366 11.5225 13.9366 11.5217 13.9366C11.3183 13.9378 11.1543 14.1036 11.1554 14.307C11.1561 14.4251 11.1608 14.5425 11.1687 14.6593L7.71832 18.1096C7.57448 18.2535 7.57448 18.4867 7.71832 18.6305L8.48422 19.3965C8.91512 19.8273 8.91532 20.5281 8.48417 20.9593L8.31071 21.1328C8.16686 21.2768 7.93383 21.2769 7.78973 21.1329C7.64579 20.9891 7.64574 20.756 7.78963 20.612L7.96324 20.4383C8.10709 20.2945 8.10709 20.0613 7.96324 19.9174L7.1974 19.1515C7.0537 19.0077 6.82032 19.0077 6.67642 19.1515L5.63462 20.1933C5.49077 20.3371 5.49077 20.5703 5.63462 20.7142L5.96588 21.0455C6.11159 21.1911 6.12775 21.4342 5.98268 21.5807C5.83917 21.7256 5.60515 21.7266 5.46052 21.5819L5.11375 21.2351C4.97005 21.0913 4.73667 21.0913 4.59277 21.2351L3.55092 22.277C3.40722 22.4208 3.40707 22.654 3.55097 22.7979L4.31691 23.5638C4.46071 23.7076 4.69394 23.7076 4.83784 23.5638L5.0114 23.3902C5.15696 23.2447 5.39938 23.2434 5.54504 23.4035C5.6803 23.5521 5.658 23.7855 5.51749 23.9258L5.38037 24.063C5.1577 24.2857 4.87074 24.4083 4.57244 24.4083C4.28042 24.4083 4.00466 24.2934 3.79594 24.0846L3.03004 23.3187C2.8862 23.175 2.65292 23.1749 2.50907 23.3188C2.22987 23.5981 1.77755 23.5982 1.49821 23.3187L0.946341 22.7669C0.666946 22.4876 0.666995 22.0354 0.946391 21.7561L3.1072 19.5953C3.25105 19.4514 3.25105 19.2182 3.1072 19.0743C2.9633 18.9305 2.73012 18.9305 2.58622 19.0743L0.425465 21.2352C-0.141723 21.8025 -0.14192 22.7206 0.425465 23.2879L0.977282 23.8397C1.46113 24.3235 2.18965 24.388 2.73646 24.067L3.27501 24.6056C3.62287 24.9535 4.08363 25.1451 4.57244 25.1451C5.06753 25.1451 5.53949 24.9458 5.9014 24.5839L6.03852 24.4467C6.45321 24.032 6.49324 23.3508 6.08984 22.9077C5.69871 22.4779 5.03723 22.4223 4.58206 22.7872L4.33228 22.5375L4.85326 22.0166L4.9395 22.1029C5.36834 22.5318 6.07068 22.5388 6.5061 22.0991C6.93671 21.6642 6.91953 20.9574 6.4868 20.5247L6.41599 20.4538L6.93691 19.933L7.18664 20.1827C6.84438 20.6096 6.86039 21.2457 7.2689 21.654C7.70069 22.0856 8.39955 22.0859 8.83168 21.6537L9.00514 21.4802C9.72394 20.7613 9.72404 19.5946 9.00514 18.8757L8.49969 18.3702L11.3038 15.5661C12.1984 19.3907 16.6548 21.1034 19.8819 18.9486C20.0511 18.8356 20.0966 18.6069 19.9837 18.4377C19.8707 18.2685 19.6421 18.2229 19.4728 18.3359Z" fill="url(#paint3_linear)"/>
<path d="M18.6734 0C16.5573 0 14.5429 1.17647 13.5863 3.18684C11.3933 1.35341 8.10818 1.43818 6.01928 3.52689C2.89461 6.65151 4.45306 11.9586 8.70111 12.9592L3.63035 18.03C3.4865 18.1739 3.4865 18.407 3.63035 18.5509C3.77429 18.6948 4.00742 18.6947 4.15132 18.5509L9.60628 13.096C9.72302 13.1039 9.84079 13.1091 9.95767 13.1098H9.95988C10.1623 13.1098 10.327 12.9463 10.3282 12.7436C10.3293 12.5402 10.1654 12.3743 9.962 12.3731C5.65325 12.3476 3.47427 7.11375 6.54015 4.04787C8.43114 2.15698 11.5241 2.1172 13.4615 4.07169C13.6522 4.26401 13.977 4.19108 14.0691 3.93859C14.7788 1.99353 16.5861 0.736672 18.6734 0.736672C21.3409 0.736672 23.5283 2.92459 23.5283 5.59149C23.5283 7.67892 22.2714 9.48618 20.3263 10.1957C20.073 10.2882 20.0016 10.6136 20.1934 10.8035C22.0656 12.6568 22.0863 15.548 20.4931 17.4275C20.3615 17.5826 20.3807 17.8151 20.5359 17.9466C20.6909 18.0781 20.9234 18.0591 21.055 17.9038C22.764 15.8879 22.8763 12.8274 21.0784 10.6785C23.0812 9.72555 24.265 7.7164 24.265 5.59149C24.265 2.51677 21.7475 0 18.6734 0V0Z" fill="url(#paint4_linear)"/>
<path d="M20.1269 7.08963C20.9429 6.27349 20.9432 4.95465 20.1269 4.13837C19.3109 3.32224 17.9918 3.32219 17.1756 4.13832C16.3595 4.95451 16.3594 6.27325 17.1756 7.08958C17.9917 7.90581 19.3106 7.90591 20.1269 7.08963ZM17.6966 4.6593C18.2246 4.13115 19.0778 4.13095 19.606 4.6593C20.1343 5.18759 20.1343 6.04036 19.606 6.5687V6.56875C19.0777 7.09704 18.2249 7.09704 17.6966 6.56875C17.1683 6.04041 17.1682 5.18764 17.6966 4.6593Z" fill="url(#paint5_linear)"/>
<path d="M12.0769 7.49699C12.0769 6.33849 11.1401 5.40857 9.98953 5.40857C8.84067 5.40857 7.90234 6.33717 7.90234 7.49704C7.90234 8.65533 8.83905 9.58545 9.98958 9.58545C11.1384 9.5855 12.0769 8.657 12.0769 7.49699ZM10.9451 8.4526C10.9451 8.45265 10.9451 8.45265 10.9451 8.4526C10.6897 8.70808 10.3503 8.84883 9.98958 8.84883C9.25497 8.84883 8.63902 8.25615 8.63902 7.49708C8.63902 6.73772 9.25527 6.14529 9.98953 6.14529C10.7243 6.14529 11.3401 6.73802 11.3401 7.49704C11.3402 7.8585 11.1999 8.19786 10.9451 8.4526Z" fill="url(#paint6_linear)"/>
<path d="M14.6875 14.2702C14.6875 15.4533 15.6264 16.3636 16.7704 16.3636C17.9144 16.3636 18.8556 15.4386 18.8556 14.2757C18.8556 13.1174 17.9189 12.1873 16.7684 12.1873C15.6403 12.1873 14.6875 13.0888 14.6875 14.2702ZM16.7684 12.9239C17.5034 12.9239 18.1189 13.517 18.1189 14.2757C18.1189 14.6372 17.9786 14.9766 17.7239 15.2312V15.2313C17.4689 15.4864 17.1302 15.6269 16.7704 15.6269C16.0151 15.6269 15.4242 15.0286 15.4242 14.2701C15.4242 13.5035 16.0396 12.9239 16.7684 12.9239Z" fill="url(#paint7_linear)"/>
<defs>
<linearGradient id="paint0_linear" x1="13.126" y1="5.71887" x2="14.1443" y2="6.33557" gradientUnits="userSpaceOnUse">
<stop stop-color="#FF3F33"/>
<stop offset="1" stop-color="#FFC01A"/>
</linearGradient>
<linearGradient id="paint1_linear" x1="17.4638" y1="10.056" x2="18.4823" y2="10.6727" gradientUnits="userSpaceOnUse">
<stop stop-color="#FF3F33"/>
<stop offset="1" stop-color="#FFC01A"/>
</linearGradient>
<linearGradient id="paint2_linear" x1="14.7778" y1="7.71985" x2="16.4403" y2="8.72648" gradientUnits="userSpaceOnUse">
<stop stop-color="#FF3F33"/>
<stop offset="1" stop-color="#FFC01A"/>
</linearGradient>
<linearGradient id="paint3_linear" x1="1.22158" y1="13.9366" x2="12.3548" y2="25.9934" gradientUnits="userSpaceOnUse">
<stop stop-color="#FF3F33"/>
<stop offset="1" stop-color="#FFC01A"/>
</linearGradient>
<linearGradient id="paint4_linear" x1="4.78651" y1="6.76636e-07" x2="22.0121" y2="11.5954" gradientUnits="userSpaceOnUse">
<stop stop-color="#FF3F33"/>
<stop offset="1" stop-color="#FFC01A"/>
</linearGradient>
<linearGradient id="paint5_linear" x1="16.8179" y1="3.52625" x2="20.5049" y2="5.7588" gradientUnits="userSpaceOnUse">
<stop stop-color="#FF3F33"/>
<stop offset="1" stop-color="#FFC01A"/>
</linearGradient>
<linearGradient id="paint6_linear" x1="8.15674" y1="5.40857" x2="11.8439" y2="7.64" gradientUnits="userSpaceOnUse">
<stop stop-color="#FF3F33"/>
<stop offset="1" stop-color="#FFC01A"/>
</linearGradient>
<linearGradient id="paint7_linear" x1="14.9415" y1="12.1873" x2="18.6258" y2="14.4138" gradientUnits="userSpaceOnUse">
<stop stop-color="#FF3F33"/>
<stop offset="1" stop-color="#FFC01A"/>
</linearGradient>
</defs>
</svg>
