<svg width="23" height="36" viewBox="0 0 23 36" fill="none" xmlns="http://www.w3.org/2000/svg">
<path d="M18.0887 9.43811C18.2323 9.43811 18.3772 9.42673 18.5218 9.40384C19.2417 9.28969 19.874 8.90203 20.3022 8.31229L22.9013 4.73372C23.0066 4.58868 23.0293 4.39944 22.9613 4.23357C22.8933 4.06771 22.7443 3.94888 22.5675 3.9195C22.5214 3.91184 21.5021 3.74446 20.2574 3.73066C19.8588 2.55174 19.3852 1.63454 19.3633 1.59234C19.2807 1.43323 19.1216 1.32826 18.9428 1.31495C18.7643 1.30129 18.5911 1.38171 18.4858 1.52682L15.8868 5.10539C15.4585 5.69512 15.2854 6.41631 15.3996 7.13619C15.4841 7.66924 15.7189 8.15401 16.0744 8.54375C15.6809 9.01127 14.9882 9.86205 14.2287 10.9208V10.4685C14.2287 10.1829 13.9971 9.9513 13.7115 9.9513C13.4258 9.9513 13.1942 10.1829 13.1942 10.4685V12.4449C12.7791 13.0947 12.3748 13.7817 12.0174 14.4792V11.5744C12.0174 11.5744 12.0174 11.5742 12.0174 11.5741V10.6828L13.5244 9.17576C13.7264 8.97376 13.7264 8.64623 13.5244 8.44429C13.3224 8.24229 12.9949 8.24229 12.793 8.44429L12.0172 9.21983V7.6189C13.2752 7.37641 14.2286 6.26776 14.2286 4.94007V0.517276C14.2286 0.33803 14.1358 0.171543 13.9833 0.0772651C13.8308 -0.0170131 13.6404 -0.025565 13.48 0.0546438C13.4382 0.0755409 12.5159 0.539483 11.5 1.25943C10.4847 0.539759 9.5624 0.0758857 9.51992 0.0546438C9.3595 -0.025565 9.16908 -0.0169441 9.01666 0.0772651C8.86418 0.171543 8.77135 0.33803 8.77135 0.517276V4.94007C8.77135 6.26776 9.72475 7.37648 10.9827 7.6189V10.3255L9.65434 8.99714C9.45233 8.79513 9.1248 8.79513 8.92287 8.99714C8.72086 9.19914 8.72086 9.52667 8.92287 9.7286L10.9828 11.7885V14.4792C9.66344 11.9052 7.70601 9.4708 6.92579 8.54375C7.28124 8.15401 7.51608 7.66924 7.60056 7.13619C7.7147 6.41631 7.54166 5.69512 7.11338 5.10539L4.51435 1.52682C4.40904 1.38171 4.23586 1.30136 4.0573 1.31495C3.87854 1.32826 3.71943 1.43323 3.63681 1.59234C3.61474 1.63454 3.14114 2.55181 2.74258 3.73073C1.49848 3.74466 0.478666 3.91184 0.432527 3.9195C0.255695 3.94888 0.106588 4.06771 0.0386551 4.23357C-0.0293465 4.39944 -0.00658772 4.58868 0.0987252 4.73372L2.69775 8.31229C3.12604 8.90203 3.75833 9.28963 4.47821 9.40384C4.6229 9.4268 4.7676 9.43811 4.91132 9.43811C5.32271 9.43811 5.72548 9.34473 6.09473 9.16493C6.25453 9.35507 6.47529 9.62239 6.73661 9.95137H6.28246C5.9968 9.95137 5.76521 10.183 5.76521 10.4686C5.76521 10.7543 5.9968 10.9859 6.28246 10.9859H7.53187C8.28761 12.0021 9.16343 13.2808 9.87558 14.6001C9.03425 13.7734 8.09933 13.0316 7.07841 12.3818C3.98082 10.4106 1.18986 9.97468 1.07254 9.95709C0.92378 9.93481 0.772397 9.97847 0.658325 10.0767C0.544185 10.175 0.478597 10.3181 0.478597 10.4686C0.478597 10.5513 0.489976 12.5252 1.47648 15.2735C2.36733 17.7551 4.25965 21.3587 8.21851 24.538V26.4335L6.02459 34.6607C5.98314 34.816 6.01625 34.9817 6.11418 35.1091C6.21205 35.2366 6.36363 35.3113 6.52433 35.3113H16.4756C16.6363 35.3113 16.7879 35.2366 16.8858 35.1091C16.9837 34.9817 17.0168 34.816 16.9753 34.6607L14.7814 26.4335V24.538C18.7402 21.3587 20.6326 17.7551 21.5234 15.2735C22.51 12.5252 22.5213 10.5513 22.5213 10.4686C22.5213 10.3181 22.4557 10.175 22.3416 10.0767C22.2275 9.9784 22.0764 9.93467 21.9273 9.95709C21.8588 9.96737 20.2246 10.2201 18.073 11.2104C16.6631 11.8593 14.8329 12.9275 13.1199 14.6088C13.833 13.2868 14.7111 12.0045 15.4685 10.9859H16.7174C17.0031 10.9859 17.2347 10.7543 17.2347 10.4686C17.2347 10.183 17.0031 9.95137 16.7174 9.95137H16.2636C16.5248 9.62246 16.7455 9.35514 16.9052 9.165C17.2746 9.34473 17.6773 9.43811 18.0887 9.43811ZM21.5481 4.83641L20.7671 5.91182C20.7303 5.55781 20.6633 5.17877 20.5635 4.77283C20.9277 4.78524 21.2652 4.80972 21.5481 4.83641ZM2.23285 5.91182L1.45165 4.83621C1.73435 4.80952 2.07174 4.78517 2.43644 4.7729C2.33664 5.17884 2.26967 5.55781 2.23285 5.91182ZM5.90107 8.0796C5.53486 8.34553 5.08712 8.45298 4.64015 8.38209C4.19324 8.31119 3.80068 8.07056 3.53474 7.70441C2.793 6.68315 3.57977 4.26971 4.19241 2.84409L6.27625 5.71326C6.82516 6.46907 6.65688 7.53062 5.90107 8.0796ZM13.1941 1.39543V2.72243C12.9566 2.45836 12.6786 2.19159 12.3601 1.92255C12.6621 1.71855 12.9494 1.54013 13.1941 1.39543ZM9.80586 4.94007V1.39399C11.1394 2.18752 13.1941 3.67783 13.1941 4.94007C13.1941 5.87423 12.4341 6.63418 11.5 6.63418C10.5659 6.63418 9.80586 5.87423 9.80586 4.94007ZM2.46609 14.9682C1.85401 13.277 1.63497 11.8829 1.55655 11.1144C2.5212 11.3493 4.45897 11.9411 6.52302 13.2546C8.23292 14.3428 9.68503 15.7045 10.8387 17.302C12.1735 19.1502 13.1117 21.3249 13.6338 23.7726H12.429C11.7676 20.8709 10.4657 18.4008 8.55479 16.4263C8.35617 16.221 8.02871 16.2157 7.82339 16.4144C7.61808 16.613 7.61277 16.9406 7.81146 17.1458C9.53826 18.93 10.7315 21.1574 11.3656 23.7726H8.91749C5.12857 20.7476 3.31791 17.3222 2.46609 14.9682ZM13.7469 24.807V25.984H9.25295V24.807H13.7469ZM15.8023 34.2767H13.6114L13.5239 33.6201C13.4862 33.337 13.226 33.1379 12.9428 33.1757C12.6596 33.2134 12.4607 33.4736 12.4985 33.7568L12.5678 34.2766H7.19765L9.13315 27.0184H11.6L12.2036 31.5453C12.2382 31.8053 12.4603 31.9943 12.7157 31.9943C12.7384 31.9943 12.7614 31.9928 12.7846 31.9897C13.0678 31.952 13.2667 31.6918 13.229 31.4086L12.6436 27.0184H13.8668L15.8023 34.2767ZM18.4726 12.1653C19.7229 11.5867 20.7993 11.2717 21.4432 11.1147C21.3648 11.8835 21.1457 13.2773 20.5338 14.9682C19.7216 17.2126 18.0383 20.4311 14.5994 23.3478C14.1016 21.1244 13.2721 19.1141 12.1254 17.3526C14.1138 14.5781 16.663 13.0027 18.4726 12.1653ZM16.7237 5.71326L18.8079 2.84361C19.4211 4.26854 20.2084 6.68115 19.4652 7.70441C19.1993 8.07056 18.8067 8.31119 18.3598 8.38209C17.9128 8.45292 17.4651 8.34553 17.0989 8.0796C16.343 7.53062 16.1748 6.46914 16.7237 5.71326Z" fill="url(#paint0_linear)"/>
<path d="M6.83766 14.9097C6.47207 14.6343 6.08737 14.3712 5.69412 14.1275C5.45121 13.9769 5.13245 14.0518 4.98196 14.2947C4.83148 14.5375 4.9063 14.8563 5.14914 15.0068C5.51577 15.2341 5.87447 15.4795 6.21523 15.736C6.30848 15.8062 6.41772 15.8402 6.526 15.8402C6.6829 15.8402 6.83787 15.7691 6.93959 15.6341C7.11153 15.4059 7.0658 15.0816 6.83766 14.9097Z" fill="url(#paint1_linear)"/>
<defs>
<linearGradient id="paint0_linear" x1="1.40161" y1="1.28052e-06" x2="25.4205" y2="9.47329" gradientUnits="userSpaceOnUse">
<stop stop-color="#FF3F33"/>
<stop offset="1" stop-color="#FFC01A"/>
</linearGradient>
<linearGradient id="paint1_linear" x1="5.03467" y1="14.0498" x2="6.72921" y2="15.276" gradientUnits="userSpaceOnUse">
<stop stop-color="#FF3F33"/>
<stop offset="1" stop-color="#FFC01A"/>
</linearGradient>
</defs>
</svg>
