<svg width="24" height="26" viewBox="0 0 24 26" fill="none" xmlns="http://www.w3.org/2000/svg">
<path d="M12.136 6.58131H12.0412V5.87002H12.4963C12.7067 5.87002 12.8772 5.6995 12.8772 5.48916C12.8772 5.27883 12.7067 5.1083 12.4963 5.1083H12.0412V4.94067C12.0412 4.73034 11.8707 4.55981 11.6603 4.55981C11.45 4.55981 11.2795 4.73034 11.2795 4.94067V5.1083H11.1847C10.5686 5.1083 10.0674 5.60956 10.0674 6.22564C10.0674 6.84172 10.5686 7.34298 11.1847 7.34298H11.2795V8.05427H10.8243C10.6139 8.05427 10.4434 8.2248 10.4434 8.43513C10.4434 8.64547 10.6139 8.81599 10.8243 8.81599H11.2795V8.98362C11.2795 9.19395 11.45 9.36448 11.6603 9.36448C11.8707 9.36448 12.0412 9.19395 12.0412 8.98362V8.81599H12.136C12.7521 8.81599 13.2533 8.31473 13.2533 7.69865C13.2533 7.08257 12.7521 6.58131 12.136 6.58131ZM11.1847 6.58131C10.9886 6.58131 10.8291 6.42176 10.8291 6.22569C10.8291 6.02963 10.9887 5.87007 11.1847 5.87007H11.2795V6.58136H11.1847V6.58131ZM12.136 8.05432H12.0412V7.34303H12.136C12.332 7.34303 12.4916 7.50258 12.4916 7.6987C12.4916 7.89482 12.3321 8.05432 12.136 8.05432Z" fill="url(#paint0_linear)"/>
<path d="M14.1182 6.38269C14.1182 6.59303 14.2886 6.76355 14.499 6.76355H15.0083C15.2187 6.76355 15.3892 6.59303 15.3892 6.38269C15.3892 6.17235 15.2187 6.00183 15.0083 6.00183H14.499C14.2886 6.00183 14.1182 6.1723 14.1182 6.38269Z" fill="url(#paint1_linear)"/>
<path d="M15.0083 7.16089H14.499C14.2886 7.16089 14.1182 7.33141 14.1182 7.54175C14.1182 7.75208 14.2886 7.92261 14.499 7.92261H15.0083C15.2187 7.92261 15.3892 7.75208 15.3892 7.54175C15.3892 7.33141 15.2187 7.16089 15.0083 7.16089Z" fill="url(#paint2_linear)"/>
<path d="M8.81885 6.00183H8.30957C8.09923 6.00183 7.92871 6.17235 7.92871 6.38269C7.92871 6.59303 8.09923 6.76355 8.30957 6.76355H8.81885C9.02919 6.76355 9.19971 6.59303 9.19971 6.38269C9.19971 6.17235 9.02919 6.00183 8.81885 6.00183Z" fill="url(#paint3_linear)"/>
<path d="M8.81885 7.16089H8.30957C8.09923 7.16089 7.92871 7.33141 7.92871 7.54175C7.92871 7.75208 8.09923 7.92261 8.30957 7.92261H8.81885C9.02919 7.92261 9.19971 7.75208 9.19971 7.54175C9.19971 7.33141 9.02919 7.16089 8.81885 7.16089Z" fill="url(#paint4_linear)"/>
<path d="M23.1576 0.859472C23.0211 0.664523 22.8168 0.534371 22.5825 0.493035L21.6352 0.325965C21.1514 0.240804 20.6882 0.564941 20.6029 1.04873L18.9524 10.4095H17.7085C18.3069 9.36253 18.6216 8.18248 18.6216 6.9621C18.6216 3.1232 15.4984 0 11.6594 0C7.82044 0 4.6972 3.1232 4.6972 6.96215C4.6972 8.18253 5.01184 9.36263 5.61024 10.4095H4.36463L2.71612 1.06016C2.67479 0.825753 2.54468 0.621511 2.34968 0.48496C2.15473 0.348461 1.91825 0.296105 1.68389 0.33734L0.736568 0.50441C0.502162 0.545746 0.29792 0.675847 0.16137 0.870796C0.0248698 1.06575 -0.0275365 1.30223 0.0137486 1.53659L1.6354 10.7336C1.50793 10.8877 1.43126 11.0853 1.43126 11.3005V20.3125C1.43126 20.5228 1.60178 20.6933 1.81211 20.6933C2.02245 20.6933 2.19297 20.5228 2.19297 20.3125V11.3006C2.19297 11.2293 2.25097 11.1713 2.32226 11.1713H12.1251V18.3938C12.1251 18.7445 12.4104 19.0297 12.761 19.0297H18.7774C19.128 19.0297 19.4133 18.7445 19.4133 18.3938V11.1713H20.9966C21.0679 11.1713 21.126 11.2292 21.126 11.3005V25.1089C21.126 25.1802 21.0679 25.2382 20.9966 25.2382H11.6087C11.3984 25.2382 11.2279 25.4087 11.2279 25.6191C11.2279 25.8294 11.3984 25.9999 11.6087 25.9999H20.9967C21.4881 25.9999 21.8878 25.6002 21.8878 25.1089V11.3006C21.8878 11.0845 21.8103 10.8862 21.6819 10.7318L23.3052 1.52537C23.3466 1.29091 23.2941 1.05447 23.1576 0.859472ZM18.6516 15.309H12.8868V11.1713H18.6516V15.309ZM5.45892 6.96215C5.45892 3.54321 8.24046 0.761718 11.6594 0.761718C15.0783 0.761718 17.8598 3.54321 17.8598 6.96215C17.8598 8.19857 17.4975 9.38833 16.8128 10.4095H15.8885C16.6758 9.44185 17.1166 8.22193 17.1166 6.96215C17.1166 5.81206 16.7627 4.71184 16.0932 3.78041C15.9704 3.60953 15.7324 3.57068 15.5616 3.69347C15.3908 3.81626 15.3519 4.05422 15.4746 4.225C16.0505 5.02607 16.3548 5.97258 16.3548 6.96215C16.3548 8.26723 15.8054 9.5229 14.8471 10.4095H8.47176C7.51347 9.5229 6.96402 8.26728 6.96402 6.96215C6.96402 4.37312 9.07037 2.26677 11.6595 2.26677C12.6224 2.26677 13.5479 2.55638 14.336 3.10425C14.5087 3.2243 14.746 3.18159 14.8661 3.00894C14.9862 2.83623 14.9435 2.59888 14.7708 2.47883C13.8545 1.84183 12.7786 1.5051 11.6594 1.5051C8.65031 1.5051 6.20225 3.95316 6.20225 6.9622C6.20225 8.22198 6.64298 9.4419 7.43024 10.4096H6.50602C5.82134 9.38833 5.45892 8.19857 5.45892 6.96215ZM0.785369 1.30777C0.796845 1.29137 0.822947 1.26267 0.868853 1.2546L1.81618 1.08753C1.86203 1.07935 1.89646 1.09743 1.91281 1.10896C1.92922 1.12044 1.95791 1.14654 1.96598 1.19244L3.59123 10.4095H2.35177L0.763939 1.4044C0.755814 1.3585 0.773892 1.32417 0.785369 1.30777ZM12.8868 18.268V16.0707H18.6516V18.268H12.8868ZM22.5551 1.39303L20.9653 10.4095H19.7258L21.353 1.18107C21.3654 1.11084 21.4328 1.06371 21.5028 1.07616L22.4502 1.24323C22.496 1.2513 22.5222 1.27999 22.5336 1.29639C22.5451 1.3128 22.5632 1.34712 22.5551 1.39303Z" fill="url(#paint5_linear)"/>
<path d="M9.88152 25.2383H2.32167C2.25037 25.2383 2.19238 25.1802 2.19238 25.1089V22.0391C2.19238 21.8287 2.02186 21.6582 1.81152 21.6582C1.60119 21.6582 1.43066 21.8287 1.43066 22.0391V25.1089C1.43066 25.6002 1.83036 26 2.32167 26H9.88152C10.0919 26 10.2624 25.8295 10.2624 25.6191C10.2624 25.4088 10.0919 25.2383 9.88152 25.2383Z" fill="url(#paint6_linear)"/>
<path d="M14.0322 14.5146H17.3486C17.559 14.5146 17.7295 14.3441 17.7295 14.1338C17.7295 13.9235 17.559 13.7529 17.3486 13.7529H14.0322C13.8218 13.7529 13.6514 13.9235 13.6514 14.1338C13.6514 14.3441 13.8219 14.5146 14.0322 14.5146Z" fill="url(#paint7_linear)"/>
<path d="M14.0322 13.1881H14.8487C15.0591 13.1881 15.2296 13.0176 15.2296 12.8073C15.2296 12.5969 15.0591 12.4264 14.8487 12.4264H14.0322C13.8218 12.4264 13.6514 12.5969 13.6514 12.8073C13.6514 13.0176 13.8219 13.1881 14.0322 13.1881Z" fill="url(#paint8_linear)"/>
<path d="M14.0835 16.7629H14.0322C13.8218 16.7629 13.6514 16.9335 13.6514 17.1438C13.6514 17.3541 13.8218 17.5247 14.0322 17.5247H14.0835C14.2939 17.5247 14.4643 17.3541 14.4643 17.1438C14.4643 16.9335 14.2939 16.7629 14.0835 16.7629Z" fill="url(#paint9_linear)"/>
<path d="M15.2827 16.7629H15.2314C15.0211 16.7629 14.8506 16.9335 14.8506 17.1438C14.8506 17.3541 15.0211 17.5247 15.2314 17.5247H15.2827C15.4931 17.5247 15.6635 17.3541 15.6635 17.1438C15.6635 16.9335 15.493 16.7629 15.2827 16.7629Z" fill="url(#paint10_linear)"/>
<path d="M16.4809 16.7629H16.4297C16.2193 16.7629 16.0488 16.9335 16.0488 17.1438C16.0488 17.3541 16.2193 17.5247 16.4297 17.5247H16.4809C16.6913 17.5247 16.8618 17.3541 16.8618 17.1438C16.8618 16.9335 16.6913 16.7629 16.4809 16.7629Z" fill="url(#paint11_linear)"/>
<path d="M17.6802 16.7629H17.6289C17.4185 16.7629 17.248 16.9335 17.248 17.1438C17.248 17.3541 17.4185 17.5247 17.6289 17.5247H17.6802C17.8906 17.5247 18.0611 17.3541 18.0611 17.1438C18.0611 16.9335 17.8906 16.7629 17.6802 16.7629Z" fill="url(#paint12_linear)"/>
<path d="M5.12605 15.0669C5.33638 15.0669 5.50691 14.8964 5.50691 14.686V13.6959L5.73334 13.9088C5.80687 13.9779 5.90061 14.0122 5.99415 14.0122C6.09556 14.0122 6.19677 13.9719 6.27167 13.8922C6.41574 13.739 6.40832 13.498 6.25512 13.3538L5.38691 12.5375C5.24025 12.3996 5.01174 12.3996 4.86513 12.5375L3.99693 13.3538C3.84367 13.4979 3.83626 13.7389 3.98037 13.8922C4.12449 14.0455 4.36545 14.0528 4.51875 13.9088L4.74519 13.6959V14.686C4.74519 14.8964 4.91571 15.0669 5.12605 15.0669Z" fill="url(#paint13_linear)"/>
<path d="M8.25007 15.0669C8.46041 15.0669 8.63093 14.8964 8.63093 14.686V13.6959L8.85736 13.9088C8.93089 13.9779 9.02464 14.0122 9.11818 14.0122C9.21959 14.0122 9.32079 13.9719 9.39569 13.8922C9.53976 13.739 9.53235 13.498 9.37914 13.3538L8.51093 12.5375C8.36428 12.3996 8.13576 12.3996 7.98916 12.5375L7.12095 13.3538C6.96769 13.4979 6.96028 13.7389 7.1044 13.8922C7.24846 14.0455 7.48947 14.0528 7.64278 13.9088L7.86921 13.6959V14.686C7.86921 14.8964 8.03973 15.0669 8.25007 15.0669Z" fill="url(#paint14_linear)"/>
<path d="M3.82054 18.5169C3.93317 18.7161 4.14529 18.8398 4.37411 18.8398H5.87855C6.10732 18.8398 6.31943 18.7161 6.43207 18.517C6.5447 18.3178 6.54145 18.0722 6.42353 17.8761L5.67131 16.6253C5.55523 16.4323 5.35149 16.3171 5.12628 16.3171C4.90111 16.3171 4.69738 16.4324 4.58134 16.6253L3.82912 17.8761C3.71116 18.0722 3.70786 18.3177 3.82054 18.5169ZM5.12628 17.1971L5.65613 18.0781H4.59648L5.12628 17.1971Z" fill="url(#paint15_linear)"/>
<path d="M19.0324 21.8867C19.2428 21.8867 19.4133 21.7162 19.4133 21.5059C19.4133 21.2955 19.2428 21.125 19.0324 21.125H17.2295C17.0191 21.125 16.8486 21.2955 16.8486 21.5059C16.8486 21.7162 17.0191 21.8867 17.2295 21.8867H19.0324Z" fill="url(#paint16_linear)"/>
<path d="M12.125 22.8507C12.125 23.061 12.2955 23.2316 12.5059 23.2316H19.0324C19.2427 23.2316 19.4132 23.061 19.4132 22.8507C19.4132 22.6404 19.2427 22.4698 19.0324 22.4698H12.5059C12.2955 22.4698 12.125 22.6404 12.125 22.8507Z" fill="url(#paint17_linear)"/>
<defs>
<linearGradient id="paint0_linear" x1="10.2615" y1="4.55981" x2="13.5724" y2="5.88917" gradientUnits="userSpaceOnUse">
<stop stop-color="#FF3F33"/>
<stop offset="1" stop-color="#FFC01A"/>
</linearGradient>
<linearGradient id="paint1_linear" x1="14.1956" y1="6.00183" x2="14.9546" y2="6.76868" gradientUnits="userSpaceOnUse">
<stop stop-color="#FF3F33"/>
<stop offset="1" stop-color="#FFC01A"/>
</linearGradient>
<linearGradient id="paint2_linear" x1="14.1956" y1="7.16089" x2="14.9546" y2="7.92774" gradientUnits="userSpaceOnUse">
<stop stop-color="#FF3F33"/>
<stop offset="1" stop-color="#FFC01A"/>
</linearGradient>
<linearGradient id="paint3_linear" x1="8.00617" y1="6.00183" x2="8.76514" y2="6.76868" gradientUnits="userSpaceOnUse">
<stop stop-color="#FF3F33"/>
<stop offset="1" stop-color="#FFC01A"/>
</linearGradient>
<linearGradient id="paint4_linear" x1="8.00617" y1="7.16089" x2="8.76514" y2="7.92774" gradientUnits="userSpaceOnUse">
<stop stop-color="#FF3F33"/>
<stop offset="1" stop-color="#FFC01A"/>
</linearGradient>
<linearGradient id="paint5_linear" x1="1.42105" y1="9.42852e-07" x2="23.1519" y2="11.8018" gradientUnits="userSpaceOnUse">
<stop stop-color="#FF3F33"/>
<stop offset="1" stop-color="#FFC01A"/>
</linearGradient>
<linearGradient id="paint6_linear" x1="1.96887" y1="21.6582" x2="6.20295" y2="26.8734" gradientUnits="userSpaceOnUse">
<stop stop-color="#FF3F33"/>
<stop offset="1" stop-color="#FFC01A"/>
</linearGradient>
<linearGradient id="paint7_linear" x1="13.8999" y1="13.7529" x2="14.3275" y2="15.1391" gradientUnits="userSpaceOnUse">
<stop stop-color="#FF3F33"/>
<stop offset="1" stop-color="#FFC01A"/>
</linearGradient>
<linearGradient id="paint8_linear" x1="13.7475" y1="12.4264" x2="14.4874" y2="13.3547" gradientUnits="userSpaceOnUse">
<stop stop-color="#FF3F33"/>
<stop offset="1" stop-color="#FFC01A"/>
</linearGradient>
<linearGradient id="paint9_linear" x1="13.7009" y1="16.7629" x2="14.3929" y2="17.2102" gradientUnits="userSpaceOnUse">
<stop stop-color="#FF3F33"/>
<stop offset="1" stop-color="#FFC01A"/>
</linearGradient>
<linearGradient id="paint10_linear" x1="14.9001" y1="16.7629" x2="15.5921" y2="17.2102" gradientUnits="userSpaceOnUse">
<stop stop-color="#FF3F33"/>
<stop offset="1" stop-color="#FFC01A"/>
</linearGradient>
<linearGradient id="paint11_linear" x1="16.0984" y1="16.7629" x2="16.7904" y2="17.2102" gradientUnits="userSpaceOnUse">
<stop stop-color="#FF3F33"/>
<stop offset="1" stop-color="#FFC01A"/>
</linearGradient>
<linearGradient id="paint12_linear" x1="17.2976" y1="16.7629" x2="17.9896" y2="17.2102" gradientUnits="userSpaceOnUse">
<stop stop-color="#FF3F33"/>
<stop offset="1" stop-color="#FFC01A"/>
</linearGradient>
<linearGradient id="paint13_linear" x1="4.02919" y1="12.4341" x2="6.29562" y2="13.7362" gradientUnits="userSpaceOnUse">
<stop stop-color="#FF3F33"/>
<stop offset="1" stop-color="#FFC01A"/>
</linearGradient>
<linearGradient id="paint14_linear" x1="7.15321" y1="12.4341" x2="9.41964" y2="13.7362" gradientUnits="userSpaceOnUse">
<stop stop-color="#FF3F33"/>
<stop offset="1" stop-color="#FFC01A"/>
</linearGradient>
<linearGradient id="paint15_linear" x1="3.90745" y1="16.3171" x2="6.22738" y2="17.863" gradientUnits="userSpaceOnUse">
<stop stop-color="#FF3F33"/>
<stop offset="1" stop-color="#FFC01A"/>
</linearGradient>
<linearGradient id="paint16_linear" x1="17.0049" y1="21.125" x2="17.6051" y2="22.3486" gradientUnits="userSpaceOnUse">
<stop stop-color="#FF3F33"/>
<stop offset="1" stop-color="#FFC01A"/>
</linearGradient>
<linearGradient id="paint17_linear" x1="12.5691" y1="22.4698" x2="12.8236" y2="23.944" gradientUnits="userSpaceOnUse">
<stop stop-color="#FF3F33"/>
<stop offset="1" stop-color="#FFC01A"/>
</linearGradient>
</defs>
</svg>
