<svg width="30" height="29" viewBox="0 0 30 29" fill="none" xmlns="http://www.w3.org/2000/svg">
<path d="M27.4409 21.0299C27.3271 20.7217 26.9852 20.5641 26.677 20.6778L20.4916 22.9601C20.1834 23.0738 20.0258 23.4159 20.1395 23.724C20.2282 23.9643 20.4555 24.1131 20.6975 24.1131C20.7659 24.1131 20.8354 24.1012 20.9034 24.0761L27.0888 21.7938C27.397 21.6801 27.5546 21.3381 27.4409 21.0299Z" fill="url(#paint0_linear)"/>
<path d="M19.5555 23.9398C19.4418 23.6315 19.0998 23.4739 18.7916 23.5876L18.5297 23.6842C18.2215 23.7979 18.0638 24.1399 18.1776 24.4481C18.2662 24.6883 18.4936 24.8371 18.7356 24.8371C18.804 24.8371 18.8735 24.8252 18.9415 24.8002L19.2034 24.7036C19.5115 24.5899 19.6692 24.2479 19.5555 23.9398Z" fill="url(#paint1_linear)"/>
<path d="M27.4405 18.6063C27.3267 18.2981 26.9848 18.1406 26.6766 18.2542L21.7884 20.0578C21.4803 20.1715 21.3226 20.5135 21.4364 20.8217C21.525 21.062 21.7524 21.2107 21.9944 21.2107C22.0628 21.2107 22.1323 21.1988 22.2003 21.1738L27.0884 19.3702C27.3966 19.2565 27.5542 18.9145 27.4405 18.6063Z" fill="url(#paint2_linear)"/>
<path d="M27.4405 16.208C27.3267 15.8998 26.9848 15.7423 26.6766 15.8559L21.7884 17.6595C21.4803 17.7732 21.3226 18.1152 21.4364 18.4234C21.525 18.6637 21.7524 18.8124 21.9944 18.8124C22.0628 18.8124 22.1323 18.8005 22.2003 18.7755L27.0884 16.9719C27.3966 16.8582 27.5542 16.5161 27.4405 16.208Z" fill="url(#paint3_linear)"/>
<path d="M29.4676 5.32553L15.1341 0.0367374C15.0012 -0.0122458 14.8552 -0.0122458 14.7224 0.0367374L0.388892 5.32553L0.388776 5.326C0.341833 5.34337 0.296699 5.36635 0.254713 5.39557C0.0951092 5.50683 0 5.68906 0 5.88353V22.8997C0 23.1488 0.155172 23.3715 0.388834 23.4577L14.7223 28.7465C14.7892 28.7712 14.8588 28.7833 14.9282 28.7833C14.9982 28.7833 15.0679 28.7706 15.1339 28.7462L15.1341 28.7465L29.4676 23.4577C29.7013 23.3715 29.8565 23.1489 29.8565 22.8997V5.88353C29.8565 5.63442 29.7013 5.41178 29.4676 5.32553ZM14.3335 27.3352L1.18948 22.4852V6.73695L3.86583 7.72455V14.9308C3.86583 15.1799 4.021 15.4026 4.25466 15.4888L10.6779 17.8589C10.7448 17.8836 10.8145 17.8957 10.8838 17.8957C11.0038 17.8957 11.1228 17.8594 11.2239 17.7889C11.3835 17.6777 11.4786 17.4954 11.4786 17.3009V10.5335L14.3334 11.5869V27.3352H14.3335ZM10.2892 10.0946V16.4474L5.05537 14.5162V8.16335L10.2892 10.0946ZM6.17871 7.30521L10.8839 5.56905L15.5891 7.30521L10.8839 9.04138L6.17871 7.30521ZM14.9282 10.5384L12.5956 9.67769L17.5132 7.86316C17.7468 7.77691 17.902 7.55427 17.902 7.30515C17.902 7.05604 17.7468 6.8334 17.5132 6.74715L11.0898 4.37706C10.9569 4.32808 10.811 4.32808 10.678 4.37706L4.45415 6.67368L2.31289 5.88353L14.9282 1.22872L27.5436 5.88359L14.9282 10.5384ZM28.667 22.4852L15.523 27.3351V11.5869L28.667 6.73695V22.4852Z" fill="url(#paint4_linear)"/>
<defs>
<linearGradient id="paint0_linear" x1="20.552" y1="20.6409" x2="23.9051" y2="24.9536" gradientUnits="userSpaceOnUse">
<stop stop-color="#FF3F33"/>
<stop offset="1" stop-color="#FFC01A"/>
</linearGradient>
<linearGradient id="paint1_linear" x1="18.2291" y1="23.5507" x2="19.4234" y2="24.3668" gradientUnits="userSpaceOnUse">
<stop stop-color="#FF3F33"/>
<stop offset="1" stop-color="#FFC01A"/>
</linearGradient>
<linearGradient id="paint2_linear" x1="21.7698" y1="18.2173" x2="24.6901" y2="21.8077" gradientUnits="userSpaceOnUse">
<stop stop-color="#FF3F33"/>
<stop offset="1" stop-color="#FFC01A"/>
</linearGradient>
<linearGradient id="paint3_linear" x1="21.7698" y1="15.819" x2="24.6901" y2="19.4094" gradientUnits="userSpaceOnUse">
<stop stop-color="#FF3F33"/>
<stop offset="1" stop-color="#FFC01A"/>
</linearGradient>
<linearGradient id="paint4_linear" x1="1.81945" y1="1.04379e-06" x2="27.6559" y2="16.228" gradientUnits="userSpaceOnUse">
<stop stop-color="#FF3F33"/>
<stop offset="1" stop-color="#FFC01A"/>
</linearGradient>
</defs>
</svg>
