<svg width="30" height="30" viewBox="0 0 30 30" fill="none" xmlns="http://www.w3.org/2000/svg">
<g clip-path="url(#clip0)">
<path d="M15 30C23.2843 30 30 23.2843 30 15C30 6.71573 23.2843 0 15 0C6.71573 0 0 6.71573 0 15C0 23.2843 6.71573 30 15 30Z" fill="#75B73B"/>
<path d="M21.1079 8.89601C20.2382 8.67851 18.9592 7.92734 18.1314 7.62622C14.899 6.61613 10.5556 7.42419 9.34347 11.1616C9.24245 11.2626 9.04042 11.2626 8.9394 11.2626C6.51515 14.0909 8.13134 17.5252 7.92931 20.6565C7.86034 21.7604 7.27991 22.7364 6.53296 23.5621L12.819 29.8416C13.5312 29.9453 14.2591 30 15 30C22.4084 30 28.5617 24.629 29.7801 17.5686L21.1079 8.89601Z" fill="#52891D"/>
<path d="M14.5803 6.35425C10.0082 6.57175 6.40033 10.3794 6.4141 14.9565C6.41832 16.3505 6.75488 17.6664 7.34867 18.8292L6.43713 23.2539C6.38785 23.4933 6.60371 23.7029 6.84148 23.6465L11.1771 22.6194C12.2911 23.1743 13.5422 23.4947 14.8663 23.5149C19.5393 23.5863 23.4357 19.8759 23.5815 15.2046C23.7375 10.1973 19.6049 6.1149 14.5803 6.35425ZM19.7537 19.6837C18.484 20.9534 16.7957 21.6527 15 21.6527C13.9486 21.6527 12.9418 21.4167 12.0078 20.9515L11.4042 20.6507L8.74578 21.2804L9.30529 18.5643L9.00793 17.9817C8.52301 17.0321 8.27715 16.0054 8.27715 14.9299C8.27715 13.1341 8.97646 11.4459 10.2461 10.1761C11.5045 8.91767 13.2203 8.20716 15.0001 8.20716C16.7956 8.20716 18.4839 8.90648 19.7536 10.1761C21.0233 11.4458 21.7226 13.1341 21.7226 14.9297C21.7227 16.7095 21.0121 18.4253 19.7537 19.6837Z" fill="white"/>
<path d="M19.1669 16.7919L17.5038 16.3144C17.2853 16.2518 17.0497 16.3138 16.8904 16.4761L16.4837 16.8904C16.3122 17.0652 16.0521 17.1213 15.8251 17.0295C15.0383 16.7111 13.3833 15.2396 12.9609 14.5037C12.8388 14.2914 12.8591 14.0261 13.0088 13.8321L13.3638 13.3728C13.5029 13.1929 13.5322 12.9511 13.4402 12.7431L12.7406 11.1606C12.573 10.7816 12.0887 10.6712 11.7722 10.9389C11.3081 11.3315 10.7574 11.928 10.6905 12.5889C10.5724 13.7542 11.0722 15.2229 12.9617 16.9867C15.1447 19.0244 16.893 19.2934 18.0314 19.0178C18.6771 18.8615 19.193 18.2346 19.5185 17.7213C19.7406 17.3711 19.565 16.9063 19.1669 16.7919Z" fill="white"/>
<path d="M20.8596 8.65479L19.5574 9.98943C19.6237 10.0507 19.6897 10.1122 19.7538 10.1764C21.0235 11.4461 21.7228 13.1344 21.7228 14.9299C21.7228 16.7097 21.0121 18.4254 19.7538 19.6839C18.4841 20.9536 16.7958 21.6529 15.0001 21.6529C13.9487 21.6529 12.942 21.4169 12.0079 20.9517L11.4043 20.6509L8.74588 21.2806L8.80084 21.0138L6.4469 23.4263C6.49881 23.5823 6.66399 23.6885 6.84147 23.6465L11.1771 22.6193C12.291 23.1743 13.5422 23.4946 14.8663 23.5149C19.5393 23.5863 23.4358 19.8759 23.5815 15.2046C23.6621 12.6186 22.5987 10.2794 20.8596 8.65479Z" fill="#D1D1D1"/>
<path d="M19.1668 16.7919L17.5037 16.3145C17.2852 16.2518 17.0496 16.3139 16.8903 16.4762L16.4836 16.8904C16.3121 17.0653 16.052 17.1213 15.825 17.0295C15.3705 16.8456 14.6267 16.2769 13.9977 15.6875L12.8416 16.8726C12.8812 16.9105 12.9208 16.9484 12.9617 16.9867C15.1447 19.0245 16.893 19.2935 18.0314 19.0178C18.677 18.8615 19.193 18.2347 19.5184 17.7213C19.7405 17.3711 19.5649 16.9064 19.1668 16.7919Z" fill="#D1D1D1"/>
</g>
<defs>
<clipPath id="clip0">
<rect width="30" height="30" fill="white"/>
</clipPath>
</defs>
</svg>
