<svg width="32" height="32" viewBox="0 0 32 32" fill="none" xmlns="http://www.w3.org/2000/svg">
<path d="M21.6777 9.6969C21.3328 9.6969 21.0527 9.9762 21.0527 10.3217C21.0527 10.6669 21.3328 10.9467 21.6777 10.9467C22.0234 10.9467 22.3027 10.6669 22.3027 10.3217C22.3027 9.9762 22.0234 9.6969 21.6777 9.6969Z" fill="url(#paint0_linear)"/>
<path d="M10.3213 21.0526C9.97559 21.0526 9.69629 21.3326 9.69629 21.6776C9.69629 22.0233 9.97559 22.3026 10.3213 22.3026C10.6663 22.3026 10.9463 22.0233 10.9463 21.6776C10.9463 21.3326 10.6663 21.0526 10.3213 21.0526Z" fill="url(#paint1_linear)"/>
<path d="M31.2224 3.84503C31.0115 3.79596 30.7898 3.85968 30.6375 4.01349L28.0464 6.62507H26.8042L25.4368 5.20832V3.94879L27.9907 1.35675C28.1419 1.20343 28.2034 0.98297 28.1533 0.773254C28.1035 0.563781 27.9492 0.394835 27.7451 0.325987C27.1035 0.109679 26.4322 5.92949e-05 25.7493 5.92949e-05C23.7136 5.92949e-05 21.8643 0.949279 20.6753 2.60431C19.5625 4.15363 19.2195 6.05231 19.711 7.86945L15.1072 12.4732L7.43726 4.78571V3.27692C7.43726 3.05744 7.32203 2.85382 7.1338 2.74103L2.7146 0.0891707C2.46851 -0.0585345 2.15381 -0.0197161 1.95117 0.183165L0.183594 1.9505C-0.019043 2.15338 -0.0578614 2.46808 0.0895997 2.71417L2.74097 7.13337C2.85376 7.3216 3.05713 7.43659 3.27661 7.43683L4.78492 7.43732L12.4556 15.1248L7.86939 19.711C6.05225 19.2198 4.15259 19.5633 2.60254 20.6768C0.948487 21.8651 0 23.714 0 25.7496C0 26.4322 0.109619 27.1038 0.325928 27.7452C0.39502 27.9505 0.565674 28.1056 0.776612 28.1544C0.987794 28.2035 1.20923 28.1397 1.36182 27.9859L3.95264 25.3746H5.20166L6.62476 26.7977V28.0467L4.01343 30.6375C3.85962 30.7901 3.7959 31.0116 3.84497 31.2227C3.8938 31.4337 4.04883 31.6043 4.25415 31.6734C4.89551 31.8897 5.56714 31.9994 6.24976 31.9994C8.28541 31.9994 10.134 31.0506 11.3225 29.3966C12.436 27.8465 12.7796 25.9471 12.2883 24.13L15.9717 20.4466L16.8154 21.3631L16.4282 21.7501C16.1841 21.9942 16.1841 22.39 16.4282 22.6341C16.6724 22.878 17.0679 22.878 17.3123 22.6341L17.6629 22.2835L25.5794 30.8827C25.5852 30.889 25.5913 30.8951 25.5974 30.9012C27.0623 32.3661 29.4356 32.3666 30.9012 30.901C32.3626 29.4388 32.3626 27.0597 30.9012 25.5975C30.8948 25.5912 30.8882 25.585 30.8816 25.5789L22.2691 17.6776L22.6157 17.3309C22.8599 17.087 22.8599 16.6912 22.6157 16.4471C22.3716 16.203 21.9761 16.203 21.7317 16.4471L21.3472 16.8319L20.429 15.9891L24.1301 12.2879C24.6563 12.4285 25.1992 12.4998 25.7493 12.4998C29.1956 12.4998 31.9991 9.69611 31.9991 6.25007C31.9991 5.5672 31.8894 4.89582 31.6731 4.25421C31.604 4.04889 31.4334 3.89386 31.2224 3.84503ZM5.48658 6.37092C5.36939 6.25348 5.21045 6.19367 5.04444 6.19367L3.63086 6.19318L1.4126 2.48956L2.48999 1.41217L6.18726 3.63092V5.0445C6.18726 5.21003 6.25294 5.36872 6.36988 5.4859L14.2234 13.3573L13.3394 14.241L5.48658 6.37092ZM21.3843 18.5623L30.0262 26.4903C30.9915 27.4659 30.9886 29.0455 30.0171 30.0174C29.0435 30.9911 27.4673 30.994 26.4898 30.026L18.5474 21.3988L21.3843 18.5623ZM20.4624 17.7164L17.7 20.4784L16.8562 19.5618L19.5442 16.8736L20.4624 17.7164ZM25.7493 11.2498C25.2027 11.2498 24.6651 11.1622 24.1519 10.9893C23.927 10.9139 23.6785 10.972 23.5105 11.1397C20.3772 14.273 13.6257 21.0243 11.1397 23.5106C10.9717 23.6786 10.9133 23.9271 10.9893 24.1522C11.5088 25.6949 11.2603 27.3404 10.3071 28.6673C9.3567 29.9903 7.87769 30.7494 6.24976 30.7494C6.0669 30.7494 5.88502 30.7393 5.70484 30.7201L7.68995 28.7503C7.80811 28.6331 7.87476 28.4735 7.87476 28.3067V26.5387C7.87476 26.3729 7.80885 26.214 7.69166 26.0968L5.90235 24.3075C5.78516 24.1903 5.62623 24.1244 5.46045 24.1244H3.69239C3.52564 24.1244 3.36597 24.191 3.24854 24.3092L1.27905 26.2943C1.25952 26.1141 1.24976 25.9322 1.24976 25.7494C1.24976 24.1212 2.00855 22.6424 3.33179 21.692C4.65845 20.7389 6.30421 20.4901 7.84718 21.0098C8.07203 21.0858 8.32056 21.0274 8.48853 20.8595C8.52296 20.8253 20.8506 8.49738 20.8594 8.48859C21.0274 8.32062 21.0855 8.07233 21.0098 7.84724C20.49 6.30451 20.7381 4.65949 21.6905 3.33356C22.6416 2.00934 24.1209 1.25006 25.749 1.25006C25.9375 1.25006 26.1248 1.26056 26.3103 1.28107L24.3665 3.25397C24.2512 3.37091 24.1868 3.52838 24.1868 3.69245V5.46051C24.1868 5.62262 24.2495 5.77814 24.3621 5.8946L26.0889 7.68391C26.2066 7.80598 26.3689 7.87482 26.5386 7.87482H28.3067C28.4732 7.87482 28.6328 7.80842 28.7503 7.69001L30.7198 5.70514C30.7393 5.88532 30.7491 6.0672 30.7491 6.25007C30.7491 9.0069 28.5061 11.2498 25.7493 11.2498Z" fill="url(#paint2_linear)"/>
<path d="M19.4688 11.6473L11.6478 19.4684C11.4039 19.7123 11.4039 20.108 11.6478 20.3522C11.8919 20.5963 12.2877 20.5963 12.5318 20.3522L20.3529 12.5311C20.597 12.2872 20.597 11.8915 20.3529 11.6473C20.1087 11.4032 19.713 11.4032 19.4688 11.6473Z" fill="url(#paint3_linear)"/>
<defs>
<linearGradient id="paint0_linear" x1="21.1289" y1="9.6969" x2="22.2325" y2="10.3653" gradientUnits="userSpaceOnUse">
<stop stop-color="#FF3F33"/>
<stop offset="1" stop-color="#FFC01A"/>
</linearGradient>
<linearGradient id="paint1_linear" x1="9.77246" y1="21.0526" x2="10.8762" y2="21.721" gradientUnits="userSpaceOnUse">
<stop stop-color="#FF3F33"/>
<stop offset="1" stop-color="#FFC01A"/>
</linearGradient>
<linearGradient id="paint2_linear" x1="1.95002" y1="1.16044e-06" x2="30.2053" y2="17.1088" gradientUnits="userSpaceOnUse">
<stop stop-color="#FF3F33"/>
<stop offset="1" stop-color="#FFC01A"/>
</linearGradient>
<linearGradient id="paint3_linear" x1="12.0176" y1="11.4642" x2="20.0273" y2="16.3143" gradientUnits="userSpaceOnUse">
<stop stop-color="#FF3F33"/>
<stop offset="1" stop-color="#FFC01A"/>
</linearGradient>
</defs>
</svg>
