<svg width="28" height="29" viewBox="0 0 28 29" fill="none" xmlns="http://www.w3.org/2000/svg">
<path d="M20.4066 1.12152L4.24963 0.00219865C3.72293 -0.0339395 3.26612 0.379724 3.23085 0.925081L3.10446 2.88249H0.957037C0.429354 2.88249 0 3.32719 0 3.87374V27.9734C0 28.5199 0.429354 28.9646 0.957037 28.9646H13.3242C13.4314 28.9646 13.5376 28.9192 13.6136 28.8409L15.4805 26.9157C15.4995 26.9199 15.5189 26.9233 15.5388 26.9246L18.7261 27.1454C19.2348 27.1802 19.7108 26.7516 19.7449 26.2225L21.2976 2.17678C21.3326 1.63708 20.9276 1.1576 20.4066 1.12152ZM13.7344 27.5116V24.5605C13.7344 24.4824 13.7957 24.4189 13.8711 24.4189H16.7094L13.7344 27.5116ZM18.9264 26.1659C18.913 26.2514 18.8645 26.2954 18.7809 26.2977L16.2499 26.1223L17.9864 24.3318C18.0637 24.2521 18.1072 24.1437 18.1072 24.0307V3.8738C18.1072 3.32725 17.6778 2.88255 17.1502 2.88255H12.8849C12.3546 2.88255 12.3546 3.73219 12.8849 3.73219H17.1502C17.2256 3.73219 17.2869 3.79574 17.2869 3.8738V23.5692H13.8711C13.3434 23.5692 12.914 24.0139 12.914 24.5605V28.115H0.957037C0.881677 28.115 0.820318 28.0514 0.820318 27.9734V3.8738C0.820318 3.79574 0.881677 3.73219 0.957037 3.73219H10.7007C11.231 3.73219 11.231 2.88255 10.7007 2.88255H3.92659L4.04931 0.981838C4.06265 0.89625 4.11116 0.852352 4.19483 0.85003L20.3518 1.96929C20.4344 1.98311 20.4769 2.03336 20.4791 2.12002L18.9264 26.1659Z" fill="url(#paint0_linear)"/>
<path d="M14.6465 13.4087H3.45996C3.23345 13.4087 3.0498 13.5989 3.0498 13.8335C3.0498 14.0681 3.23345 14.2583 3.45996 14.2583H14.6465C14.8731 14.2583 15.0567 14.0681 15.0567 13.8335C15.0567 13.5989 14.8731 13.4087 14.6465 13.4087Z" fill="url(#paint1_linear)"/>
<path d="M14.6465 16.3704H3.45996C3.23345 16.3704 3.0498 16.5606 3.0498 16.7952C3.0498 17.0298 3.23345 17.22 3.45996 17.22H14.6465C14.8731 17.22 15.0567 17.0298 15.0567 16.7952C15.0567 16.5606 14.8731 16.3704 14.6465 16.3704Z" fill="url(#paint2_linear)"/>
<path d="M3.0498 10.8721C3.0498 11.1067 3.23345 11.2969 3.45996 11.2969H14.6465C14.8731 11.2969 15.0567 11.1067 15.0567 10.8721C15.0567 10.6375 14.8731 10.4473 14.6465 10.4473H3.45996C3.23345 10.4473 3.0498 10.6375 3.0498 10.8721Z" fill="url(#paint3_linear)"/>
<path d="M5.02051 7.91042C5.02051 8.14503 5.20415 8.33524 5.43067 8.33524H12.6761C12.9026 8.33524 13.0863 8.14503 13.0863 7.91042C13.0863 7.6758 12.9026 7.4856 12.6761 7.4856H5.43067C5.20415 7.4856 5.02051 7.6758 5.02051 7.91042Z" fill="url(#paint4_linear)"/>
<path d="M10.6505 24.8359C9.91282 24.838 9.17513 24.8396 8.43745 24.8408C8.1895 24.8412 7.9416 24.8416 7.6937 24.8417C7.24443 24.8421 6.94174 24.7487 6.84111 24.2368C6.75602 23.8041 6.16495 23.8623 6.05011 24.2368C5.76628 25.1622 5.29684 24.7996 5.0339 24.1772C4.77156 23.5562 4.70429 22.8612 4.58972 22.2004C4.5055 21.7148 3.79642 21.8509 3.78406 22.3133C3.76776 22.9223 3.71286 23.5216 3.56361 24.1122C3.40967 24.7215 3.17894 25.3072 2.94991 25.8894C2.75024 26.397 3.5442 26.6153 3.74091 26.1153C3.94386 25.5994 4.14708 25.0806 4.29835 24.5455C4.57944 25.2456 5.16099 26.0375 5.98968 25.5708C6.14384 25.4839 6.28783 25.3605 6.41422 25.2166C6.84516 25.7324 7.48659 25.6917 8.08679 25.691C8.9414 25.6898 9.79601 25.6879 10.6506 25.6856C11.1783 25.6842 11.1793 24.8345 10.6505 24.8359Z" fill="url(#paint5_linear)"/>
<path d="M27.6678 13.9408C27.4546 13.7211 27.1616 13.6085 26.8641 13.6001L26.5542 13.6017V12.9946C26.5542 12.6248 26.3421 12.234 26.0383 12.0395V11.1843C26.0383 9.42443 23.3929 9.43208 23.3929 11.1925V12.0478C23.0834 12.246 22.8759 12.5996 22.8759 13.0024V13.6244C21.5105 13.7207 21.5066 15.8757 22.8774 15.9599C22.8861 17.8617 22.8857 19.7324 22.8759 21.666C22.8732 22.1992 23.6934 22.2305 23.6962 21.6705C23.706 19.7352 23.7065 17.8629 23.6978 15.9595L25.7327 15.9491C25.7327 15.9491 25.7301 22.2278 25.7301 25.0563C25.7301 26.4349 23.6947 26.4441 23.6947 25.042L23.6954 24.2673C23.7274 23.719 22.9086 23.6679 22.8766 24.2161V24.9431C22.8766 25.5661 23.0626 26.0938 23.4228 26.465C23.4548 27.3539 23.8164 28.214 24.4273 28.8415C24.6026 29.0216 24.8453 28.9666 25.0149 28.8312C25.6364 28.1863 25.9867 27.3362 26.0085 26.4287C26.2793 26.1494 26.5504 25.8682 26.5504 24.9053L26.5507 21.0337C27.26 21.2426 27.9996 20.6741 27.9996 19.9039V14.768C27.9996 14.4551 27.8818 14.1614 27.6678 13.9408ZM23.6962 13.6164V13.0023C23.6962 12.8766 23.7795 12.7712 23.8916 12.7399L25.5336 12.7315C25.5795 12.7433 25.6219 12.7657 25.6562 12.8012C25.7063 12.8528 25.7338 12.9215 25.7338 12.9946V13.606L23.6962 13.6164ZM24.7172 10.671C24.969 10.671 25.2179 10.9267 25.2179 11.1843V11.8734L24.2132 11.8785V11.1925C24.2132 10.9063 24.4392 10.6724 24.7172 10.671ZM24.7166 27.8848C24.5259 27.6049 24.388 27.2883 24.311 26.9555C24.438 26.984 24.5666 26.9989 24.6953 26.9989C24.839 26.9989 24.9826 26.9804 25.124 26.9446C25.0489 27.2825 24.9112 27.601 24.7166 27.8848ZM27.1793 19.9039C27.1793 20.3061 26.553 20.3378 26.553 19.9113C26.553 19.9113 26.5537 15.8911 26.5542 15.5226C26.5544 15.2849 26.3637 15.0973 26.1408 15.0973L22.9477 15.1137C22.5516 15.1137 22.5609 14.4719 22.9517 14.4699L26.8682 14.4498C27.0576 14.4665 27.1612 14.5726 27.1792 14.768V19.9039H27.1793Z" fill="url(#paint6_linear)"/>
<defs>
<linearGradient id="paint0_linear" x1="1.298" y1="1.05036e-06" x2="22.7483" y2="9.55153" gradientUnits="userSpaceOnUse">
<stop stop-color="#FF3F33"/>
<stop offset="1" stop-color="#FFC01A"/>
</linearGradient>
<linearGradient id="paint1_linear" x1="3.7815" y1="13.4087" x2="3.97671" y2="15.0791" gradientUnits="userSpaceOnUse">
<stop stop-color="#FF3F33"/>
<stop offset="1" stop-color="#FFC01A"/>
</linearGradient>
<linearGradient id="paint2_linear" x1="3.7815" y1="16.3704" x2="3.97671" y2="18.0408" gradientUnits="userSpaceOnUse">
<stop stop-color="#FF3F33"/>
<stop offset="1" stop-color="#FFC01A"/>
</linearGradient>
<linearGradient id="paint3_linear" x1="3.7815" y1="10.4473" x2="3.97671" y2="12.1177" gradientUnits="userSpaceOnUse">
<stop stop-color="#FF3F33"/>
<stop offset="1" stop-color="#FFC01A"/>
</linearGradient>
<linearGradient id="paint4_linear" x1="5.51203" y1="7.4856" x2="5.79794" y2="9.12911" gradientUnits="userSpaceOnUse">
<stop stop-color="#FF3F33"/>
<stop offset="1" stop-color="#FFC01A"/>
</linearGradient>
<linearGradient id="paint5_linear" x1="3.41333" y1="21.8953" x2="7.88236" y2="26.7806" gradientUnits="userSpaceOnUse">
<stop stop-color="#FF3F33"/>
<stop offset="1" stop-color="#FFC01A"/>
</linearGradient>
<linearGradient id="paint6_linear" x1="22.2253" y1="9.86829" x2="29.3736" y2="11.2627" gradientUnits="userSpaceOnUse">
<stop stop-color="#FF3F33"/>
<stop offset="1" stop-color="#FFC01A"/>
</linearGradient>
</defs>
</svg>
