<svg width="28" height="28" viewBox="0 0 28 28" fill="none" xmlns="http://www.w3.org/2000/svg">
<path d="M7.4444 0C7.16796 0 6.94397 0.183728 6.94397 0.410351V6.15542H5.62119V0.410351C5.62119 0.183728 5.39721 0 5.12077 0C4.84434 0 4.62035 0.183728 4.62035 0.410351V6.15542H3.32706V0.410351C3.32706 0.183728 3.10308 0 2.82664 0C2.55021 0 2.32622 0.183728 2.32622 0.410351V6.15542H1.00084V0.410351C1.00084 0.183728 0.776853 0 0.500421 0C0.223988 0 0 0.183728 0 0.410351V8.85854C0 9.73133 0.573549 10.5433 1.49673 10.9775L2.32622 11.3678V13.8845C1.99201 14.2049 1.80392 14.6173 1.80392 15.0417V15.4619C1.80392 15.7164 1.91147 15.9508 2.09116 16.136C1.91141 16.3212 1.80392 16.5555 1.80392 16.8101V23.2294C1.80392 23.456 2.02791 23.6398 2.30434 23.6398C2.58077 23.6398 2.80476 23.456 2.80476 23.2294V16.81C2.80476 16.6646 2.94908 16.5463 3.12643 16.5463H4.81839C4.99574 16.5463 5.13999 16.6646 5.13999 16.81V26.2217C5.13999 26.7497 4.61615 27.1792 3.97234 27.1792C3.32853 27.1792 2.80469 26.7497 2.80469 26.2217V25.14C2.80469 24.9134 2.5807 24.7296 2.30427 24.7296C2.02784 24.7296 1.80385 24.9134 1.80385 25.14V26.2217C1.80385 27.2022 2.7766 27.9999 3.97234 27.9999C5.16808 27.9999 6.14083 27.2022 6.14083 26.2217V16.81C6.14083 16.5555 6.03327 16.3211 5.85359 16.1359C6.03334 15.9507 6.14083 15.7164 6.14083 15.4618V15.0417C6.14083 14.6185 5.95361 14.2069 5.62113 13.8869V11.3676L6.44929 10.9776C7.37167 10.5432 7.94468 9.73144 7.94468 8.8592L7.94482 0.410351C7.94482 0.183728 7.72076 0 7.4444 0V0ZM6.94391 8.8592C6.94391 9.43839 6.56339 9.97743 5.95087 10.2659L4.8715 10.7742C4.7161 10.8474 4.62029 10.9831 4.62029 11.1301V14.0495C4.62029 14.1621 4.67667 14.2696 4.77615 14.3471C5.01081 14.5298 5.13999 14.7765 5.13999 15.0417V15.4618C5.13999 15.6072 4.99574 15.7256 4.81839 15.7256H3.12643C2.94908 15.7256 2.80476 15.6072 2.80476 15.4618V15.0417C2.80476 14.7757 2.9346 14.5286 3.1704 14.3458C3.27042 14.2682 3.32706 14.1604 3.32706 14.0476V11.1301C3.32706 10.9831 3.23112 10.8473 3.07565 10.7742L1.99474 10.2657C1.3817 9.97732 1.00084 9.43812 1.00084 8.8586V6.97618H6.94384V8.8592H6.94391Z" fill="url(#paint0_linear)"/>
<path d="M17.0174 6.87971C17.0174 7.71464 16.794 8.36469 16.3883 8.71009C16.0013 9.03958 15.4101 9.10879 14.9822 9.10879C14.5544 9.10879 13.9632 9.03963 13.5762 8.71004C13.1706 8.36469 12.9471 7.71469 12.9471 6.87971C12.9471 6.65309 12.7231 6.46936 12.4467 6.46936C12.1703 6.46936 11.9463 6.65309 11.9463 6.87971C11.9463 7.94329 12.2606 8.77307 12.8553 9.27933C13.4863 9.81667 14.3603 9.92944 14.9822 9.92944C15.6042 9.92944 16.4782 9.81662 17.1092 9.27939C17.7039 8.77301 18.0183 7.94323 18.0183 6.87971C18.0183 6.65309 17.7943 6.46936 17.5178 6.46936C17.2414 6.46936 17.0174 6.65309 17.0174 6.87971Z" fill="url(#paint1_linear)"/>
<path d="M14.982 0C13.622 0 12.3262 0.829893 11.3334 2.33676C10.4636 3.65699 9.94434 5.35529 9.94434 6.87972C9.94434 9.21494 11.174 10.8342 13.3358 11.3769V13.8845C13.0016 14.2049 12.8135 14.6173 12.8135 15.0416V15.4618C12.8135 15.7163 12.921 15.9507 13.1008 16.1359C12.921 16.3211 12.8135 16.5554 12.8135 16.81V26.2217C12.8135 27.2021 13.7863 27.9999 14.982 27.9999C16.1777 27.9999 17.1505 27.2021 17.1505 26.2217V20.1424C17.1505 19.9157 16.9265 19.732 16.65 19.732C16.3736 19.732 16.1496 19.9157 16.1496 20.1424V26.2217C16.1496 26.7497 15.6258 27.1792 14.982 27.1792C14.3382 27.1792 13.8143 26.7497 13.8143 26.2217V16.81C13.8143 16.6646 13.9586 16.5463 14.136 16.5463H15.828C16.0053 16.5463 16.1496 16.6646 16.1496 16.81V18.2503C16.1496 18.4769 16.3735 18.6607 16.65 18.6607C16.9264 18.6607 17.1504 18.4769 17.1504 18.2503V16.81C17.1504 16.5555 17.0429 16.3212 16.8632 16.136C17.0429 15.9508 17.1505 15.7164 17.1505 15.4618V15.0417C17.1505 14.6185 16.9632 14.207 16.6307 13.8869V11.3763C18.7908 10.833 20.0195 9.21396 20.0195 6.87977C20.0195 5.35535 19.5003 3.65704 18.6305 2.33681C17.6377 0.829893 16.3421 0 14.982 0V0ZM16.0213 10.66C15.7925 10.7019 15.6299 10.8684 15.6299 11.0605V14.0496C15.6299 14.1621 15.6863 14.2697 15.7858 14.3472C16.0205 14.5299 16.1497 14.7765 16.1497 15.0417V15.4618C16.1497 15.6073 16.0054 15.7256 15.828 15.7256H14.1361C13.9587 15.7256 13.8145 15.6073 13.8145 15.4618V15.0417C13.8145 14.7758 13.9443 14.5287 14.1801 14.3457C14.2801 14.2682 14.3367 14.1604 14.3367 14.0476V11.061C14.3367 10.8688 14.174 10.7023 13.9451 10.6605C12.0106 10.3072 10.9452 8.96452 10.9452 6.87977C10.9452 5.48524 11.4195 3.9328 12.214 2.72692C13.0121 1.51545 14.021 0.820701 14.982 0.820701C15.9431 0.820701 16.9519 1.51545 17.75 2.72686C18.5444 3.93275 19.0188 5.48524 19.0188 6.87972C19.0188 8.96359 17.9542 10.3061 16.0213 10.66Z" fill="url(#paint2_linear)"/>
<path d="M27.7791 17.2302C27.7791 16.807 27.5918 16.3954 27.2593 16.0754V5.88133C27.2593 5.65471 27.0353 5.47098 26.7589 5.47098C26.4824 5.47098 26.2584 5.65471 26.2584 5.88133V16.2381C26.2584 16.3506 26.3148 16.4582 26.4144 16.5357C26.649 16.7183 26.7782 16.965 26.7782 17.2302V17.6503C26.7782 17.7957 26.634 17.9141 26.4566 17.9141H24.7646C24.5873 17.9141 24.443 17.7957 24.443 17.6503V17.2302C24.443 16.9642 24.5728 16.7171 24.8086 16.5343C24.9086 16.4567 24.9653 16.3489 24.9653 16.2361V14.3029C24.9653 14.0763 24.7413 13.8926 24.4649 13.8926H23.2937V4.25508C23.2937 2.71189 24.5097 1.38285 26.2585 0.930095V4.00701C26.2585 4.23364 26.4825 4.41737 26.7589 4.41737C27.0354 4.41737 27.2593 4.23364 27.2593 4.00701V0.410373C27.2593 0.28962 27.1945 0.17505 27.0821 0.0970287C26.9696 0.0190621 26.821 -0.0143678 26.6759 0.00571201C24.1363 0.356097 22.293 2.1432 22.293 4.25508V14.303C22.293 14.5297 22.517 14.7134 22.7934 14.7134H23.9645V16.073C23.6303 16.3934 23.4422 16.8059 23.4422 17.2303V17.6504C23.4422 17.905 23.5498 18.1393 23.7294 18.3245C23.5497 18.5097 23.4422 18.7441 23.4422 18.9987V26.2218C23.4422 27.2023 24.415 28 25.6107 28C26.8064 28 27.7792 27.2023 27.7792 26.2218V18.9986C27.7792 18.744 27.6716 18.5097 27.4919 18.3245C27.6717 18.1393 27.7792 17.9049 27.7792 17.6504V17.2302H27.7791ZM26.7782 26.2218C26.7782 26.7497 26.2544 27.1792 25.6106 27.1792C24.9668 27.1792 24.4429 26.7497 24.4429 26.2218V18.9986C24.4429 18.8532 24.5872 18.7348 24.7645 18.7348H26.4565C26.6339 18.7348 26.7781 18.8532 26.7781 18.9986V26.2218H26.7782Z" fill="url(#paint3_linear)"/>
<defs>
<linearGradient id="paint0_linear" x1="0.484155" y1="1.01538e-06" x2="9.79666" y2="1.60003" gradientUnits="userSpaceOnUse">
<stop stop-color="#FF3F33"/>
<stop offset="1" stop-color="#FFC01A"/>
</linearGradient>
<linearGradient id="paint1_linear" x1="12.3163" y1="6.46936" x2="15.7577" y2="10.1263" gradientUnits="userSpaceOnUse">
<stop stop-color="#FF3F33"/>
<stop offset="1" stop-color="#FFC01A"/>
</linearGradient>
<linearGradient id="paint2_linear" x1="10.5583" y1="1.01538e-06" x2="22.1655" y2="2.52906" gradientUnits="userSpaceOnUse">
<stop stop-color="#FF3F33"/>
<stop offset="1" stop-color="#FFC01A"/>
</linearGradient>
<linearGradient id="paint3_linear" x1="22.6273" y1="1.01538e-06" x2="29.1559" y2="0.774583" gradientUnits="userSpaceOnUse">
<stop stop-color="#FF3F33"/>
<stop offset="1" stop-color="#FFC01A"/>
</linearGradient>
</defs>
</svg>
